<?xml version="1.0" encoding="UTF-8"?>
<svg id="Capa_2" data-name="Capa 2" xmlns="http://www.w3.org/2000/svg" viewBox="0 0 64 64">
  <defs>
    <style>
      .cls-1 {
        fill: #007bc4;
      }

      .cls-2 {
        fill: none;
        stroke: #e5f2f9;
        stroke-linecap: round;
        stroke-linejoin: round;
        stroke-width: 2px;
      }
    </style>
  </defs>
  <g id="Capa_1-2" data-name="Capa 1">
    <circle class="cls-1" cx="32" cy="32" r="32"/>
    <g>
      <path class="cls-2" d="m23.83,45.16v-19.47c0-1.62,1.31-2.94,2.94-2.94h0c1.62,0,2.94,1.31,2.94,2.94v16.38"/>
      <path class="cls-2" d="m23.91,39.52h0c-3.24,0-5.87,2.63-5.87,5.87v3.75"/>
      <path class="cls-2" d="m29.71,42.07c0-1.62,1.31-2.7,2.94-2.42h0c1.62.29,2.94,1.83,2.94,3.45"/>
      <path class="cls-2" d="m35.66,43.17c0-1.62,1.31-2.7,2.94-2.42h0c1.62.29,2.94,1.83,2.94,3.45"/>
      <path class="cls-2" d="m41.6,44.27c0-1.62,1.31-2.7,2.94-2.42h0c1.62.29,2.94,1.83,2.94,3.45v3.84"/>
      <path class="cls-2" d="m20.96,27.28c-.93-2.25-.48-4.93,1.35-6.76,2.42-2.42,6.35-2.42,8.77,0,1.82,1.82,2.28,4.5,1.35,6.75"/>
      <path class="cls-2" d="m18.04,30.38c-2.43-3.92-1.94-9.14,1.46-12.54,3.97-3.97,10.41-3.97,14.38,0,3.42,3.42,3.89,8.66,1.43,12.59"/>
    </g>
  </g>
</svg>