<svg xmlns="http://www.w3.org/2000/svg" width="32.001" height="28.307" viewBox="-6758.283 -11319.5 32.001 28.307"><g data-name="Grupo 479"><path d="m-6749.806-11318.857 1.762 3.106 3.497.714a1.267 1.267 0 0 1 .681 2.098l-2.409 2.634.4 3.547a1.267 1.267 0 0 1-1.783 1.296l-3.25-1.476-3.25 1.477a1.267 1.267 0 0 1-1.784-1.296l.4-3.548-2.409-2.634a1.267 1.267 0 0 1 .682-2.098l3.497-.715 1.762-3.106a1.267 1.267 0 0 1 2.204 0" fill="#fd0" fill-rule="evenodd" data-name="Trazado 272"/><path d="m-6732.556-11318.857 1.762 3.106 3.497.714a1.267 1.267 0 0 1 .681 2.098l-2.409 2.634.4 3.547a1.267 1.267 0 0 1-1.783 1.296l-3.25-1.476-3.25 1.477a1.267 1.267 0 0 1-1.784-1.296l.4-3.548-2.409-2.634a1.267 1.267 0 0 1 .682-2.098l3.497-.715 1.762-3.106a1.267 1.267 0 0 1 2.204 0" fill="#fd0" fill-rule="evenodd" data-name="Trazado 273"/><path d="m-6749.806-11304.704 1.762 3.106 3.497.715a1.267 1.267 0 0 1 .681 2.097l-2.409 2.634.4 3.548a1.267 1.267 0 0 1-1.783 1.295l-3.25-1.476-3.25 1.477a1.267 1.267 0 0 1-1.784-1.296l.4-3.547-2.409-2.635a1.267 1.267 0 0 1 .682-2.097l3.497-.716 1.762-3.106a1.267 1.267 0 0 1 2.204 0" fill="#fd0" fill-rule="evenodd" data-name="Trazado 274"/><path d="m-6732.556-11304.704 1.762 3.106 3.497.715a1.267 1.267 0 0 1 .681 2.097l-2.409 2.634.4 3.548a1.267 1.267 0 0 1-1.783 1.295l-3.25-1.476-3.25 1.477a1.267 1.267 0 0 1-1.784-1.296l.4-3.547-2.409-2.635a1.267 1.267 0 0 1 .682-2.097l3.497-.716 1.762-3.106a1.267 1.267 0 0 1 2.204 0" fill="#bfdef0" fill-rule="evenodd" data-name="Trazado 275"/></g></svg>