<svg xmlns="http://www.w3.org/2000/svg" width="31.999" height="30.183" viewBox="0.001 0 31.999 30.183"><path d="M31.968 8.995c-.19-1.702-.756-3.404-1.89-5.105A8.955 8.955 0 0 0 22.892.297c-3.215 0-4.727 1.891-6.996 3.782C13.817 1.243 10.792-.46 7.2.109 2.85.864.204 5.212.015 9.372c-.189 3.781 1.513 7.563 3.782 10.588 1.701 2.268 3.78 4.16 5.86 5.86 1.135.946 4.538 3.782 5.295 4.16.945.568 1.89-.189 2.836-.756.756-.567 1.512-1.134 2.268-1.513 2.08-1.512 4.16-3.214 5.862-5.104 3.403-3.215 6.428-8.509 6.05-13.613" fill="#f99" fill-rule="evenodd" data-name="Trazado 271"/></svg>