<svg xmlns="http://www.w3.org/2000/svg" width="16" height="16" viewBox="861 15137 16 16"><g data-name="Grupo 513"><path d="M867.462 15139.462c-2.206 0-4 1.794-4 4 0 2.205 1.794 4 4 4 2.205 0 4-1.795 4-4 0-2.206-1.795-4-4-4m0-2.462a6.462 6.462 0 1 1 0 12.923 6.462 6.462 0 0 1 0-12.923Z" fill="#007bc4" fill-rule="evenodd" data-name="Elipse 1"/><path d="M875.769 15153c-.315 0-.63-.12-.87-.36l-4.308-4.308a1.23 1.23 0 1 1 1.74-1.741l4.308 4.308a1.23 1.23 0 0 1-.87 2.1Z" fill="#007bc4" fill-rule="evenodd" data-name="Línea 115"/></g></svg>