<svg xmlns="http://www.w3.org/2000/svg" width="24" height="24" viewBox="0.497 0 24 24"><g data-name="Grupo 382" clip-path="url(&quot;#a&quot;)"><path d="M12.497 24c-6.617 0-12-5.383-12-12s5.383-12 12-12a1.968 1.968 0 1 1 0 3.936C8.05 3.936 4.433 7.553 4.433 12s3.617 8.064 8.064 8.064 8.064-3.617 8.064-8.064a1.968 1.968 0 0 1 3.936 0c0 6.617-5.383 12-12 12" fill="#00ed7b" fill-rule="evenodd" data-name="Trazado 193"/><path d="M11.702 17.905 7.304 9.91a1.968 1.968 0 1 1 3.448-1.897l1.539 2.797 6.36-8.053a1.968 1.968 0 0 1 3.089 2.44L11.702 17.905Z" fill="#00ed7b" fill-rule="evenodd" data-name="Trazado 194"/></g><defs><clipPath id="a"><path d="M0 0h24v24H0V0z" data-name="Rectángulo 134"/></clipPath></defs></svg>