<svg xmlns="http://www.w3.org/2000/svg" width="32" height="24" viewBox="735 8619 32 24"><path d="M766.624 8626.954a1.529 1.529 0 0 0-2.175-.158l-2.056 1.8a16.462 16.462 0 0 0-3.18-2.528l1.622-3.002a1.57 1.57 0 0 0-.613-2.118 1.533 1.533 0 0 0-2.093.62l-1.702 3.148a16.293 16.293 0 0 0-4.27-.967v-3.188c0-.862-.69-1.561-1.542-1.561-.852 0-1.542.699-1.542 1.561v3.205a16.3 16.3 0 0 0-3.471.736l-1.529-2.916a1.533 1.533 0 0 0-2.085-.648 1.57 1.57 0 0 0-.64 2.11l1.415 2.699a16.428 16.428 0 0 0-3.124 2.259l-2.098-1.805a1.529 1.529 0 0 0-2.174.179 1.574 1.574 0 0 0 .177 2.2l2.015 1.733c-.535.72-1.02 1.487-1.442 2.302l-.378.727.378.726c2.86 5.51 8.453 8.932 14.594 8.932s11.733-3.423 14.595-8.932l.377-.726-.377-.727a16.907 16.907 0 0 0-.953-1.607l2.114-1.852c.644-.564.714-1.55.157-2.202m-16.01 11.168c-2.55 0-4.626-2.1-4.626-4.683 0-2.582 2.076-4.683 4.627-4.683 2.55 0 4.626 2.101 4.626 4.683s-2.075 4.683-4.626 4.683m-11.363-4.78c.447-.748.96-1.442 1.527-2.077.041-.04.081-.083.12-.128l.014-.02a13.368 13.368 0 0 1 4.09-3.023 7.825 7.825 0 0 0-2.1 5.345c0 1.9.676 3.645 1.796 5a13.45 13.45 0 0 1-5.447-5.097m17.138 5.26a7.825 7.825 0 0 0 1.936-5.163c0-2.144-.86-4.09-2.247-5.501.08.035.159.072.238.109.017.01.033.021.05.03.074.041.149.073.225.1a13.447 13.447 0 0 1 5.578 5.165 13.44 13.44 0 0 1-5.78 5.26" fill="#fff" fill-rule="evenodd" data-name="Trazado 270"/></svg>