<?xml version="1.0" encoding="UTF-8"?>
<svg id="Capa_6" data-name="Capa 6" xmlns="http://www.w3.org/2000/svg" viewBox="0 0 48 48">
  <defs>
    <style>
      .cls-1 {
        fill: #00caff;
      }

      .cls-1, .cls-2 {
        stroke-width: 0px;
      }

      .cls-2 {
        fill: #002b4a;
      }
    </style>
  </defs>
  <circle class="cls-1" cx="24" cy="24" r="20.67"/>
  <g>
    <path class="cls-2" d="M35.13,30.68H12.87c-2.21,0-4.01-1.8-4.01-4.01v-5.34c0-2.21,1.8-4.01,4.01-4.01h22.26c2.21,0,4.01,1.8,4.01,4.01v5.34c0,2.21-1.8,4.01-4.01,4.01ZM12.87,18.65c-1.48,0-2.68,1.2-2.68,2.68v5.34c0,1.48,1.2,2.68,2.68,2.68h22.26c1.48,0,2.68-1.2,2.68-2.68v-5.34c0-1.48-1.2-2.68-2.68-2.68H12.87Z"/>
    <path class="cls-2" d="M14.6,27.88c-.29,0-.58-.08-.85-.23-.53-.31-.85-.85-.85-1.46v-4.37c0-.61.32-1.16.85-1.46.53-.31,1.16-.31,1.69,0l3.78,2.18h0c.53.31.85.85.85,1.47s-.32,1.16-.85,1.46l-3.78,2.18c-.26.15-.56.23-.85.23ZM14.6,21.46c-.08,0-.15.03-.18.05-.05.03-.18.12-.18.31v4.37c0,.19.12.28.18.31.05.03.2.09.36,0l3.78-2.18c.16-.09.18-.25.18-.31s-.02-.22-.18-.31l-3.78-2.18c-.06-.04-.12-.05-.18-.05Z"/>
    <path class="cls-2" d="M35.28,24.67h-1.38c-.37,0-.67-.3-.67-.67s.3-.67.67-.67h1.38c.37,0,.67.3.67.67s-.3.67-.67.67Z"/>
    <path class="cls-2" d="M29.33,24.67h-5.33c-.37,0-.67-.3-.67-.67s.3-.67.67-.67h5.33c.37,0,.67.3.67.67s-.3.67-.67.67Z"/>
    <path class="cls-2" d="M31.62,26.95c-1.63,0-2.95-1.32-2.95-2.95s1.32-2.95,2.95-2.95,2.95,1.32,2.95,2.95-1.32,2.95-2.95,2.95ZM31.62,22.38c-.89,0-1.62.73-1.62,1.62s.73,1.62,1.62,1.62,1.62-.73,1.62-1.62-.73-1.62-1.62-1.62Z"/>
  </g>
</svg>