<?xml version="1.0" encoding="UTF-8"?>
<svg id="Capa_6" data-name="Capa 6" xmlns="http://www.w3.org/2000/svg" viewBox="0 0 48 48">
  <defs>
    <style>
      .cls-1 {
        fill: #00ed7b;
      }

      .cls-1, .cls-2 {
        stroke-width: 0px;
      }

      .cls-2 {
        fill: #002b4a;
      }
    </style>
  </defs>
  <rect class="cls-1" x="6.2" y="5.53" width="35.61" height="35.61" rx="4.45" ry="4.45" transform="translate(-9.47 23.8) rotate(-45)"/>
  <g>
    <path class="cls-2" d="M18.83,34.5c-.31,0-.59-.22-.65-.54l-3.41-18.07c-.07-.36.17-.71.53-.78.36-.07.71.17.78.53l3.41,18.07c.07.36-.17.71-.53.78-.04,0-.08.01-.12.01Z"/>
    <path class="cls-2" d="M17.33,26.56c-.07,0-.14-.01-.22-.04-.23-.08-.4-.27-.44-.51l-1.92-10.17c-.04-.23.04-.47.21-.62,2.48-2.2,5.36-1.9,8.14-1.6,2.62.28,5.08.53,7.12-1.27.22-.2.55-.22.8-.07.25.16.37.46.28.75-.66,2.28-1.45,4.35-2.4,6.32,1.55,1.49,2.86,2.49,3.99,3.07.2.1.33.29.36.51.03.22-.05.44-.22.58-2.48,2.2-5.36,1.9-8.14,1.6-2.61-.28-5.08-.54-7.12,1.27-.12.11-.28.17-.44.17ZM16.14,15.98l1.65,8.73c2.26-1.45,4.79-1.18,7.24-.92,2.3.24,4.48.47,6.36-.7-1.11-.71-2.35-1.74-3.76-3.12-.21-.2-.26-.52-.13-.77.76-1.51,1.41-3.08,1.98-4.76-2.07.98-4.31.74-6.5.51-2.49-.26-4.85-.51-6.83,1.04Z"/>
  </g>
</svg>