<?xml version="1.0" encoding="UTF-8"?>
<svg id="Capa_6" data-name="Capa 6" xmlns="http://www.w3.org/2000/svg" viewBox="0 0 48 48">
  <defs>
    <style>
      .cls-1 {
        fill: #00ed7b;
      }

      .cls-1, .cls-2 {
        stroke-width: 0px;
      }

      .cls-2 {
        fill: #002b4a;
      }
    </style>
  </defs>
  <rect class="cls-1" x="6.2" y="5.53" width="35.61" height="35.61" rx="4.45" ry="4.45" transform="translate(-9.47 23.8) rotate(-45)"/>
  <g>
    <path class="cls-2" d="M24.28,32.8c-3.82,0-7.68-1.16-7.68-3.36s3.87-3.36,7.68-3.36,7.69,1.16,7.69,3.36-3.87,3.36-7.69,3.36ZM24.28,27.4c-3.88,0-6.35,1.2-6.35,2.03s2.47,2.03,6.35,2.03,6.35-1.2,6.35-2.03-2.47-2.03-6.35-2.03Z"/>
    <path class="cls-2" d="M31.3,30.1c-.37,0-.67-.3-.67-.67,0-.83-2.47-2.03-6.35-2.03s-6.35,1.2-6.35,2.03c0,.37-.3.67-.67.67s-.67-.3-.67-.67v-7.59c0-2.21,3.87-3.36,7.68-3.36s7.69,1.16,7.69,3.36v7.59c0,.37-.3.67-.67.67ZM24.28,26.07c2.44,0,4.89.47,6.35,1.39v-5.61c0-.83-2.47-2.03-6.35-2.03s-6.35,1.2-6.35,2.03v5.61c1.46-.91,3.91-1.39,6.35-1.39Z"/>
    <path class="cls-2" d="M17.26,26.22c-.12,0-.23-.03-.34-.09l-6.74-4.01c-.2-.12-.33-.34-.33-.57s.12-.45.33-.57l13.48-8.01c.21-.12.47-.12.68,0l13.48,8.01c.2.12.33.34.33.57s-.12.45-.33.57l-6.17,3.67c-.32.19-.73.08-.91-.23-.19-.32-.08-.73.23-.91l5.21-3.1-12.17-7.23-12.17,7.23,5.77,3.43c.32.19.42.6.23.91-.12.21-.35.33-.57.33Z"/>
  </g>
</svg>