<?xml version="1.0" encoding="UTF-8"?>
<svg id="Capa_6" data-name="Capa 6" xmlns="http://www.w3.org/2000/svg" viewBox="0 0 48 48">
  <defs>
    <style>
      .cls-1 {
        fill: #002b4a;
      }

      .cls-1, .cls-2 {
        stroke-width: 0px;
      }

      .cls-2 {
        fill: #d6acff;
      }
    </style>
  </defs>
  <rect class="cls-2" x="3.33" y="3.33" width="41.33" height="41.33" rx="5.17" ry="5.17"/>
  <g>
    <g>
      <path class="cls-1" d="M16.05,20.42c-.37,0-.67-.3-.67-.67,0-.35-.28-.63-.62-.63h-2.72c-1.08,0-1.96-.88-1.96-1.96,0-.37.3-.67.67-.67s.67.3.67.67c0,.35.28.63.63.63h2.72c.49,0,.95.18,1.29.49.35-.3.8-.49,1.29-.49h3.72c.35,0,.63-.28.63-.63,0-.37.3-.67.67-.67s.67.3.67.67c0,1.08-.88,1.96-1.96,1.96h-3.72c-.35,0-.63.28-.63.63,0,.37-.3.67-.67.67Z"/>
      <path class="cls-1" d="M22.93,31.14c-.37,0-.67-.3-.67-.67,0-1.27-1.03-2.3-2.3-2.3h-6.26c-2,0-3.63-1.63-3.63-3.63,0-.37.3-.67.67-.67s.67.3.67.67c0,1.27,1.03,2.3,2.3,2.3h6.26c1.22,0,2.31.61,2.97,1.54.66-.93,1.74-1.54,2.97-1.54h8.54c1.27,0,2.3-1.03,2.3-2.3,0-.37.3-.67.67-.67s.67.3.67.67c0,2-1.63,3.63-3.63,3.63h-8.54c-1.27,0-2.3,1.03-2.3,2.3,0,.37-.3.67-.67.67Z"/>
      <path class="cls-1" d="M31.11,20.42c-.37,0-.67-.3-.67-.67,0-.35-.28-.63-.63-.63h-2.72c-1.08,0-1.96-.88-1.96-1.96,0-.37.3-.67.67-.67s.67.3.67.67c0,.35.28.63.63.63h2.72c.49,0,.95.18,1.29.49.35-.3.8-.49,1.29-.49h3.72c.35,0,.63-.28.63-.63,0-.37.3-.67.67-.67s.67.3.67.67c0,1.08-.88,1.96-1.96,1.96h-3.72c-.35,0-.63.28-.63.63,0,.37-.3.67-.67.67Z"/>
    </g>
    <path class="cls-1" d="M19.69,22.97h-6.86c-.37,0-.67-.3-.67-.67s.3-.67.67-.67h6.86c.37,0,.67.3.67.67s-.3.67-.67.67Z"/>
    <path class="cls-1" d="M34.93,22.97h-6.86c-.37,0-.67-.3-.67-.67s.3-.67.67-.67h6.86c.37,0,.67.3.67.67s-.3.67-.67.67Z"/>
    <path class="cls-1" d="M28.08,33.63h-9.14c-.37,0-.67-.3-.67-.67s.3-.67.67-.67h9.14c.37,0,.67.3.67.67s-.3.67-.67.67Z"/>
  </g>
</svg>