<?xml version="1.0" encoding="UTF-8"?>
<svg id="Capa_6" data-name="Capa 6" xmlns="http://www.w3.org/2000/svg" viewBox="0 0 48 48">
  <defs>
    <style>
      .cls-1 {
        fill: #002b4a;
      }

      .cls-1, .cls-2 {
        stroke-width: 0px;
      }

      .cls-2 {
        fill: #d6acff;
      }
    </style>
  </defs>
  <rect class="cls-2" x="3.33" y="3.33" width="41.33" height="41.33" rx="5.17" ry="5.17"/>
  <g>
    <path class="cls-1" d="M16.47,16.12h2.05l-6.11,15.71h-2.05l6.11-15.71Z"/>
    <path class="cls-1" d="M29.04,20.58c-.48.08-.96-.21-1.1-.68s-.38-.92-.71-1.3c-.51-.57-1.26-.92-2.25-1.04s-1.9.02-2.63.45c-.73.43-1.15,1.14-1.27,2.12-.09.75.02,1.35.35,1.8.33.45.75.8,1.26,1.05.51.24,1.03.42,1.56.52.14.03.28.05.4.07.48.08.81.53.75,1.02h0c-.06.49-.49.84-.98.8-.18-.01-.37-.03-.56-.03-.52-.03-1.01.02-1.47.14-.46.12-.87.33-1.21.64-.34.31-.55.77-.62,1.38-.05.42-.02.8.11,1.14s.31.63.55.88c.25.24.55.44.9.6.35.16.74.26,1.16.31.97.12,1.75-.02,2.37-.44.39-.26.71-.6.95-1s.78-.57,1.22-.38h0c.57.25.77.96.41,1.48-.4.58-.92,1.05-1.55,1.4-.99.56-2.2.74-3.65.56-.68-.09-1.32-.24-1.91-.45-.59-.22-1.09-.51-1.51-.89-.42-.38-.73-.83-.94-1.36s-.27-1.16-.18-1.89c.1-.79.41-1.48.92-2.06.52-.58,1.21-.99,2.08-1.23-.57-.26-1.03-.55-1.37-.87-.35-.32-.61-.67-.79-1.04-.18-.37-.3-.76-.34-1.16-.04-.4-.04-.8,0-1.21.1-.79.34-1.46.73-2.01.38-.54.86-.97,1.43-1.29.57-.32,1.2-.53,1.91-.64.7-.11,1.42-.12,2.17-.02.79.1,1.48.29,2.06.56.58.27,1.07.61,1.46,1s.7.85.92,1.35c.06.14.12.29.17.44.2.58-.18,1.21-.79,1.3h0Z"/>
    <path class="cls-1" d="M35.6,16.12h2.05l-6.11,15.71h-2.05l6.11-15.71Z"/>
  </g>
</svg>