<?xml version="1.0" encoding="UTF-8"?>
<svg id="Capa_6" data-name="Capa 6" xmlns="http://www.w3.org/2000/svg" viewBox="0 0 48 48">
  <defs>
    <style>
      .cls-1 {
        fill: #002b4a;
      }

      .cls-1, .cls-2 {
        stroke-width: 0px;
      }

      .cls-2 {
        fill: #d6acff;
      }
    </style>
  </defs>
  <rect class="cls-2" x="3.33" y="3.33" width="41.33" height="41.33" rx="5.17" ry="5.17"/>
  <path class="cls-1" d="M31.66,37.03h-14.37c-1.47,0-2.67-1.2-2.67-2.67V13.29c0-1.47,1.2-2.67,2.67-2.67h14.37c1.47,0,2.67,1.2,2.67,2.67v21.06c0,1.47-1.2,2.67-2.67,2.67ZM17.28,11.96c-.74,0-1.34.6-1.34,1.34v21.06c0,.74.6,1.34,1.34,1.34h14.37c.74,0,1.34-.6,1.34-1.34V13.29c0-.74-.6-1.34-1.34-1.34h-14.37Z"/>
  <g>
    <path class="cls-1" d="M30.31,17.05h-11.67c-.37,0-.67-.3-.67-.67s.3-.67.67-.67h11.67c.37,0,.67.3.67.67s-.3.67-.67.67Z"/>
    <path class="cls-1" d="M30.31,22.01h-11.67c-.37,0-.67-.3-.67-.67s.3-.67.67-.67h11.67c.37,0,.67.3.67.67s-.3.67-.67.67Z"/>
    <path class="cls-1" d="M30.31,26.97h-11.67c-.37,0-.67-.3-.67-.67s.3-.67.67-.67h11.67c.37,0,.67.3.67.67s-.3.67-.67.67Z"/>
    <path class="cls-1" d="M30.31,31.93h-11.67c-.37,0-.67-.3-.67-.67s.3-.67.67-.67h11.67c.37,0,.67.3.67.67s-.3.67-.67.67Z"/>
  </g>
</svg>