<?xml version="1.0" encoding="UTF-8"?>
<svg id="Capa_6" data-name="Capa 6" xmlns="http://www.w3.org/2000/svg" viewBox="0 0 48 48">
  <defs>
    <style>
      .cls-1 {
        fill: #00caff;
      }

      .cls-1, .cls-2 {
        stroke-width: 0px;
      }

      .cls-2 {
        fill: #002b4a;
      }
    </style>
  </defs>
  <circle class="cls-1" cx="24" cy="24.3" r="20"/>
  <g>
    <g>
      <path class="cls-2" d="M14.74,23.88c-1.73,0-3.13-1.41-3.13-3.13s1.41-3.13,3.13-3.13,3.13,1.41,3.13,3.13-1.41,3.13-3.13,3.13ZM14.74,18.95c-.99,0-1.8.81-1.8,1.8s.81,1.8,1.8,1.8,1.8-.81,1.8-1.8-.81-1.8-1.8-1.8Z"/>
      <path class="cls-2" d="M19.37,30.98c-.37,0-.67-.3-.67-.67,0-2.18-1.78-3.96-3.96-3.96s-3.96,1.78-3.96,3.96c0,.37-.3.67-.67.67s-.67-.3-.67-.67c0-2.92,2.38-5.29,5.29-5.29s5.29,2.38,5.29,5.29c0,.37-.3.67-.67.67Z"/>
    </g>
    <g>
      <path class="cls-2" d="M24,23.88c-1.73,0-3.13-1.41-3.13-3.13s1.41-3.13,3.13-3.13,3.13,1.41,3.13,3.13-1.41,3.13-3.13,3.13ZM24,18.95c-.99,0-1.8.81-1.8,1.8s.81,1.8,1.8,1.8,1.8-.81,1.8-1.8-.81-1.8-1.8-1.8Z"/>
      <path class="cls-2" d="M28.63,30.98c-.37,0-.67-.3-.67-.67,0-2.18-1.78-3.96-3.96-3.96s-3.96,1.78-3.96,3.96c0,.37-.3.67-.67.67s-.67-.3-.67-.67c0-2.92,2.38-5.29,5.29-5.29s5.29,2.38,5.29,5.29c0,.37-.3.67-.67.67Z"/>
    </g>
    <g>
      <path class="cls-2" d="M33.26,23.88c-1.73,0-3.13-1.41-3.13-3.13s1.41-3.13,3.13-3.13,3.13,1.41,3.13,3.13-1.41,3.13-3.13,3.13ZM33.26,18.95c-.99,0-1.8.81-1.8,1.8s.81,1.8,1.8,1.8,1.8-.81,1.8-1.8-.81-1.8-1.8-1.8Z"/>
      <path class="cls-2" d="M37.88,30.98c-.37,0-.67-.3-.67-.67,0-2.18-1.78-3.96-3.96-3.96s-3.96,1.78-3.96,3.96c0,.37-.3.67-.67.67s-.67-.3-.67-.67c0-2.92,2.38-5.29,5.29-5.29s5.29,2.38,5.29,5.29c0,.37-.3.67-.67.67Z"/>
    </g>
  </g>
</svg>