<?xml version="1.0" encoding="UTF-8"?>
<svg id="Capa_6" data-name="Capa 6" xmlns="http://www.w3.org/2000/svg" viewBox="0 0 48 48">
  <defs>
    <style>
      .cls-1 {
        fill: #00ed7b;
      }

      .cls-1, .cls-2 {
        stroke-width: 0px;
      }

      .cls-2 {
        fill: #002b4a;
      }
    </style>
  </defs>
  <rect class="cls-1" x="6.2" y="5.53" width="35.61" height="35.61" rx="4.45" ry="4.45" transform="translate(-9.47 23.8) rotate(-45)"/>
 <g>
    <path class="cls-2" d="M23.7,37.44c-1.44,0-2.83-.54-3.85-1.5-1.01-.96-1.57-2.22-1.57-3.57v-1.44c0-1.07-.35-2.1-1-2.99l-1.93-2.6c-2.07-2.8-2.43-6.34-.96-9.47,1.57-3.34,4.8-5.45,8.63-5.66.45-.02.9-.02,1.34,0,3.84.21,7.06,2.32,8.63,5.66,1.47,3.13,1.12,6.68-.96,9.47l-1.93,2.6c-.66.88-1,1.92-1,2.99v1.29c0,2.75-2.22,5.04-5.06,5.21-.12,0-.23.01-.35.01ZM23.69,11.54c-.2,0-.4,0-.6.02-3.34.18-6.14,2.01-7.5,4.89-1.26,2.68-.95,5.72.82,8.11l1.93,2.6c.83,1.12,1.26,2.43,1.26,3.78v1.44c0,.98.41,1.9,1.15,2.6.84.79,2,1.19,3.21,1.13,2.14-.13,3.81-1.83,3.81-3.88v-1.29c0-1.36.44-2.67,1.26-3.78l1.93-2.6c1.78-2.4,2.09-5.43.82-8.11-1.36-2.88-4.16-4.71-7.5-4.89-.2-.01-.4-.02-.6-.02Z"/>
    <g>
      <path class="cls-2" d="M23.5,22.71c-.97,0-1.82-.3-2.51-.76-.67.42-1.59.76-2.82.76-.37,0-.67-.3-.67-.67s.3-.67.67-.67c.7,0,1.29-.14,1.78-.37-.73-.87-1.13-1.94-1.13-2.83,0-.58.16-1.09.48-1.46.25-.3.72-.66,1.51-.66,1.31,0,2.22.99,2.22,2.41,0,.89-.36,1.83-.98,2.57.43.22.92.35,1.46.35.37,0,.67.3.67.67s-.3.67-.67.67ZM20.81,17.39c-.34,0-.45.13-.49.18-.11.13-.17.35-.17.61,0,.63.31,1.4.85,2.03.47-.55.69-1.19.69-1.74,0-.33-.08-.62-.24-.81-.15-.18-.36-.27-.65-.27Z"/>
      <path class="cls-2" d="M28.84,22.71c-.97,0-1.82-.3-2.51-.76-.67.42-1.59.76-2.82.76-.37,0-.67-.3-.67-.67s.3-.67.67-.67c.7,0,1.29-.14,1.78-.37-.73-.87-1.13-1.94-1.13-2.83,0-.58.16-1.09.48-1.46.25-.3.72-.66,1.51-.66,1.31,0,2.22.99,2.22,2.41,0,.89-.36,1.83-.98,2.57.43.22.92.35,1.46.35.37,0,.67.3.67.67s-.3.67-.67.67ZM26.14,17.39c-.34,0-.45.13-.49.18-.11.13-.17.35-.17.61,0,.63.31,1.4.85,2.03.47-.55.69-1.19.69-1.74,0-.33-.08-.62-.24-.81-.15-.18-.36-.27-.65-.27Z"/>
    </g>
  </g>
</svg>