<?xml version="1.0" encoding="UTF-8"?>
<svg id="Capa_6" data-name="Capa 6" xmlns="http://www.w3.org/2000/svg" viewBox="0 0 48 48">
  <defs>
    <style>
      .cls-1 {
        fill: #002b4a;
      }

      .cls-1, .cls-2 {
        stroke-width: 0px;
      }

      .cls-2 {
        fill: #d6acff;
      }
    </style>
  </defs>
  <rect class="cls-2" x="3.33" y="3.33" width="41.33" height="41.33" rx="5.17" ry="5.17"/>
  <g>
    <path class="cls-1" d="M23.78,31.35c-1.14,0-2.24-.42-3.05-1.19-.81-.76-1.25-1.77-1.25-2.84v-1.1c0-.78-.25-1.54-.74-2.19l-1.47-1.99c-1.62-2.19-1.9-4.96-.75-7.41,1.22-2.6,3.74-4.25,6.74-4.42.35-.02.7-.02,1.04,0,2.99.16,5.51,1.81,6.74,4.42,1.15,2.45.87,5.22-.75,7.4l-1.47,1.99c-.48.65-.74,1.41-.74,2.19v.98c0,2.19-1.76,4-4.02,4.14-.09,0-.18,0-.28,0ZM23.77,11.54c-.15,0-.3,0-.45.01-2.5.13-4.59,1.5-5.6,3.65-.94,2-.71,4.26.61,6.04l1.47,1.99c.65.88,1,1.91,1,2.99v1.1c0,.7.3,1.37.83,1.87.61.57,1.46.87,2.34.82,1.55-.09,2.76-1.33,2.76-2.81v-.98c0-1.07.35-2.1,1-2.99l1.47-1.99c1.32-1.79,1.55-4.04.61-6.04-1.01-2.15-3.11-3.52-5.6-3.65-.15,0-.3-.01-.45-.01Z"/>
    <g>
      <path class="cls-1" d="M23.62,20.08c-.74,0-1.38-.21-1.92-.55-.59.34-1.31.55-2.16.55-.37,0-.67-.3-.67-.67s.3-.67.67-.67c.45,0,.81-.08,1.11-.19-.5-.66-.77-1.44-.77-2.1,0-.48.14-.91.4-1.22.21-.25.61-.56,1.28-.56,1.09,0,1.86.82,1.86,2,0,.67-.23,1.34-.66,1.91.26.1.54.16.86.16.37,0,.67.3.67.67s-.3.67-.67.67ZM21.56,16.01c-.19,0-.24.06-.25.08-.06.07-.09.2-.09.37,0,.36.17.86.49,1.3.24-.33.37-.72.37-1.08,0-.44-.18-.67-.52-.67Z"/>
      <path class="cls-1" d="M27.7,20.08c-.74,0-1.38-.21-1.92-.55-.59.34-1.31.55-2.16.55-.37,0-.67-.3-.67-.67s.3-.67.67-.67c.45,0,.81-.08,1.11-.19-.5-.66-.77-1.44-.77-2.1,0-.48.14-.91.4-1.22.21-.25.61-.56,1.28-.56,1.09,0,1.86.82,1.86,2,0,.67-.23,1.34-.66,1.91.26.1.54.16.86.16.37,0,.67.3.67.67s-.3.67-.67.67ZM25.64,16.01c-.19,0-.24.06-.25.08-.06.07-.09.2-.09.37,0,.36.17.86.49,1.3.24-.33.37-.72.37-1.08,0-.44-.18-.67-.52-.67Z"/>
    </g>
  </g>
  <g>
    <g>
      <path class="cls-1" d="M24.1,37.15h-10.88c-.3,0-.57-.21-.65-.5s.06-.6.33-.75c.76-.42,7.5-4,10.47-2.23.63.38,1.39,1.17,1.39,2.82,0,.37-.3.67-.67.67ZM16.18,35.82h7.18c-.1-.47-.32-.8-.67-1.01-1.34-.79-4.21.06-6.51,1.01Z"/>
      <path class="cls-1" d="M34.97,37.3h-10.88c-.37,0-.67-.3-.67-.67,0-1.46.5-2.49,1.49-3.05,3.05-1.74,9.65,2.04,10.39,2.48.26.15.38.46.3.75-.08.29-.34.49-.64.49ZM24.81,35.96h7.41c-2.28-1.04-5.23-2.03-6.64-1.23-.41.24-.66.64-.77,1.23Z"/>
    </g>
    <path class="cls-1" d="M36.76,37.3H11.43c-.37,0-.67-.3-.67-.67s.3-.67.67-.67h25.33c.37,0,.67.3.67.67s-.3.67-.67.67Z"/>
  </g>
</svg>