<?xml version="1.0" encoding="UTF-8"?>
<svg id="Capa_6" data-name="Capa 6" xmlns="http://www.w3.org/2000/svg" viewBox="0 0 48 48">
  <defs>
    <style>
      .cls-1 {
        fill: #002b4a;
      }

      .cls-1, .cls-2 {
        stroke-width: 0px;
      }

      .cls-2 {
        fill: #d6acff;
      }
    </style>
  </defs>
  <rect class="cls-2" x="3.33" y="3.33" width="41.33" height="41.33" rx="5.17" ry="5.17"/>
  <g>
    <path class="cls-1" d="M32.26,33.05c-.37,0-.67-.3-.67-.67v-10.2c0-4.09-3.33-7.42-7.42-7.42s-7.42,3.33-7.42,7.42v10.2c0,.37-.3.67-.67.67s-.67-.3-.67-.67v-10.2c0-4.83,3.93-8.75,8.75-8.75s8.75,3.93,8.75,8.75v10.2c0,.37-.3.67-.67.67Z"/>
    <path class="cls-1" d="M15.74,33.05c-2.89,0-5.24-2.35-5.24-5.24s2.35-5.24,5.24-5.24c.37,0,.67.3.67.67s-.3.67-.67.67c-2.15,0-3.9,1.75-3.9,3.9s1.75,3.9,3.9,3.9c.37,0,.67.3.67.67s-.3.67-.67.67Z"/>
    <path class="cls-1" d="M32.26,33.05c-.37,0-.67-.3-.67-.67s.3-.67.67-.67c2.15,0,3.9-1.75,3.9-3.9s-1.75-3.9-3.9-3.9c-.37,0-.67-.3-.67-.67s.3-.67.67-.67c2.89,0,5.24,2.35,5.24,5.24s-2.35,5.24-5.24,5.24Z"/>
  </g>
</svg>