<?xml version="1.0" encoding="UTF-8"?>
<svg id="Capa_6" data-name="Capa 6" xmlns="http://www.w3.org/2000/svg" viewBox="0 0 48 48">
  <defs>
    <style>
      .cls-1 {
        fill: #00caff;
      }

      .cls-1, .cls-2 {
        stroke-width: 0px;
      }

      .cls-2 {
        fill: #002b4a;
      }
    </style>
  </defs>
  <circle class="cls-1" cx="24" cy="24" r="20.67"/>
  <g>
    <g>
      <path class="cls-2" d="M14.74,27.29c-2.05,0-3.71-1.67-3.71-3.71s1.67-3.71,3.71-3.71c.37,0,.67.3.67.67s-.3.67-.67.67c-1.31,0-2.38,1.07-2.38,2.38s1.07,2.38,2.38,2.38,2.38-1.07,2.38-2.38c0-.37.3-.67.67-.67s.67.3.67.67c0,2.05-1.67,3.71-3.71,3.71Z"/>
      <path class="cls-2" d="M14.74,24.89c-.21,0-.4-.1-.53-.26l-.71-.94c-.22-.29-.17-.71.13-.93.29-.22.71-.17.93.13l.18.23,1.79-2.42c.22-.3.64-.36.93-.14.3.22.36.64.14.93l-2.32,3.13c-.12.17-.32.27-.53.27h0Z"/>
    </g>
    <g>
      <path class="cls-2" d="M24,23.22c-3.03,0-5.49-2.46-5.49-5.49s2.46-5.49,5.49-5.49c.37,0,.67.3.67.67s-.3.67-.67.67c-2.29,0-4.16,1.87-4.16,4.16s1.87,4.16,4.16,4.16,4.16-1.87,4.16-4.16c0-.37.3-.67.67-.67s.67.3.67.67c0,3.03-2.46,5.49-5.49,5.49Z"/>
      <path class="cls-2" d="M24,19.43c-.21,0-.4-.1-.53-.26l-1.13-1.48c-.22-.29-.17-.71.13-.93.29-.22.71-.17.93.13l.59.78,3.89-5.16c.22-.29.64-.35.93-.13.29.22.35.64.13.93l-4.42,5.86c-.13.17-.32.26-.53.27h0Z"/>
    </g>
    <path class="cls-2" d="M31.33,34.24c-.37,0-.67-.3-.67-.67,0-3.67-2.99-6.66-6.66-6.66s-6.66,2.99-6.66,6.66c0,.37-.3.67-.67.67s-.67-.3-.67-.67c0-4.41,3.59-8,8-8s8,3.59,8,8c0,.37-.3.67-.67.67Z"/>
    <path class="cls-2" d="M10.12,34.24c-.37,0-.67-.3-.67-.67,0-2.92,2.38-5.29,5.29-5.29,1.19,0,2.37.41,3.3,1.15.29.23.34.65.11.94-.23.29-.65.34-.94.11-.71-.56-1.56-.86-2.47-.86-2.18,0-3.96,1.78-3.96,3.96,0,.37-.3.67-.67.67Z"/>
    <path class="cls-2" d="M37.88,34.24c-.37,0-.67-.3-.67-.67,0-2.18-1.78-3.96-3.96-3.96-.88,0-1.72.28-2.42.82-.29.22-.71.17-.93-.12s-.17-.71.12-.93c.93-.72,2.05-1.1,3.23-1.1,2.92,0,5.29,2.38,5.29,5.29,0,.37-.3.67-.67.67Z"/>
    <g>
      <path class="cls-2" d="M33.29,27.29c-2.05,0-3.71-1.67-3.71-3.71s1.67-3.71,3.71-3.71c.37,0,.67.3.67.67s-.3.67-.67.67c-1.31,0-2.38,1.07-2.38,2.38s1.07,2.38,2.38,2.38,2.38-1.07,2.38-2.38c0-.37.3-.67.67-.67s.67.3.67.67c0,2.05-1.67,3.71-3.71,3.71Z"/>
      <path class="cls-2" d="M33.3,24.89c-.21,0-.4-.1-.53-.26l-.71-.94c-.22-.29-.17-.71.13-.93.29-.22.71-.17.93.13l.18.23,1.79-2.42c.22-.3.64-.36.93-.14.3.22.36.64.14.93l-2.32,3.13c-.12.17-.32.27-.53.27h0Z"/>
    </g>
  </g>
</svg>