<?xml version="1.0" encoding="UTF-8"?>
<svg id="Capa_6" data-name="Capa 6" xmlns="http://www.w3.org/2000/svg" viewBox="0 0 48 48">
  <defs>
    <style>
      .cls-1 {
        fill: #00caff;
      }

      .cls-1, .cls-2 {
        stroke-width: 0px;
      }

      .cls-2 {
        fill: #002b4a;
      }
    </style>
  </defs>
  <circle class="cls-1" cx="24" cy="24" r="20.67"/>
  <g>
    <path class="cls-2" d="M14.25,33c-1.71,0-3.1-1.39-3.1-3.1s1.39-3.1,3.1-3.1,3.1,1.39,3.1,3.1-1.39,3.1-3.1,3.1ZM14.25,28.12c-.98,0-1.77.79-1.77,1.77s.79,1.77,1.77,1.77,1.77-.79,1.77-1.77-.79-1.77-1.77-1.77Z"/>
    <path class="cls-2" d="M24,33c-1.71,0-3.1-1.39-3.1-3.1s1.39-3.1,3.1-3.1,3.1,1.39,3.1,3.1-1.39,3.1-3.1,3.1ZM24,28.12c-.98,0-1.77.79-1.77,1.77s.79,1.77,1.77,1.77,1.77-.79,1.77-1.77-.79-1.77-1.77-1.77Z"/>
    <path class="cls-2" d="M33.75,33c-1.71,0-3.1-1.39-3.1-3.1s1.39-3.1,3.1-3.1,3.1,1.39,3.1,3.1-1.39,3.1-3.1,3.1ZM33.75,28.12c-.98,0-1.77.79-1.77,1.77s.79,1.77,1.77,1.77,1.77-.79,1.77-1.77-.79-1.77-1.77-1.77Z"/>
    <path class="cls-2" d="M21.56,30.56h-4.88c-.37,0-.67-.3-.67-.67s.3-.67.67-.67h4.88c.37,0,.67.3.67.67s-.3.67-.67.67Z"/>
    <path class="cls-2" d="M31.31,30.56h-4.88c-.37,0-.67-.3-.67-.67s.3-.67.67-.67h4.88c.37,0,.67.3.67.67s-.3.67-.67.67Z"/>
    <path class="cls-2" d="M29.33,23.65H11.81c-.37,0-.67-.3-.67-.67s.3-.67.67-.67h17.52c.37,0,.67.3.67.67s-.3.67-.67.67Z"/>
    <path class="cls-2" d="M36.19,19.99H11.81c-.37,0-.67-.3-.67-.67s.3-.67.67-.67h24.38c.37,0,.67.3.67.67s-.3.67-.67.67Z"/>
    <path class="cls-2" d="M36.19,16.34H11.81c-.37,0-.67-.3-.67-.67s.3-.67.67-.67h24.38c.37,0,.67.3.67.67s-.3.67-.67.67Z"/>
  </g>
</svg>