<?xml version="1.0" encoding="UTF-8"?>
<svg id="Capa_6" data-name="Capa 6" xmlns="http://www.w3.org/2000/svg" viewBox="0 0 48 48">
  <defs>
    <style>
      .cls-1 {
        fill: #00caff;
      }

      .cls-1, .cls-2 {
        stroke-width: 0px;
      }

      .cls-2 {
        fill: #002b4a;
      }
    </style>
  </defs>
  <circle class="cls-1" cx="24" cy="24.3" r="20"/>
  <g>
    <path class="cls-2" d="M13.89,32.4c-.92,0-1.84-.27-2.64-.81l-.32-.21c-1.07-.72-1.78-1.81-2-3.08-.23-1.27.06-2.54.81-3.58l4.69-6.55c.81-1.13,2.07-1.84,3.45-1.96,1.37-.11,2.74.38,3.72,1.37,1.32,1.32,3.47,1.32,4.79,0,.98-.98,2.34-1.48,3.72-1.37,1.38.11,2.64.83,3.45,1.96l4.69,6.55c.75,1.04,1.03,2.32.81,3.58s-.94,2.36-2.01,3.08l-.32.21h0c-1.34.9-3.02,1.06-4.51.42l-6.9-2.97c-.85-.37-1.83-.37-2.68,0l-6.9,2.97c-.6.26-1.24.39-1.87.39ZM18.27,17.53c-.09,0-.19,0-.28.01-.99.08-1.9.59-2.48,1.4l-4.69,6.55c-.54.75-.74,1.66-.58,2.57.16.91.67,1.69,1.44,2.21l.32.21c.96.65,2.17.76,3.23.3l6.9-2.97c1.19-.51,2.55-.51,3.73,0l6.9,2.97c1.06.46,2.27.34,3.23-.3l.32-.21c.76-.52,1.28-1.3,1.44-2.21.16-.91-.04-1.82-.58-2.57l-4.69-6.55c-.58-.81-1.48-1.32-2.48-1.4s-1.97.28-2.67.98c-1.84,1.84-4.83,1.84-6.67,0-.64-.64-1.5-.99-2.39-.99ZM36.37,31.04h0,0Z"/>
    <g>
      <path class="cls-2" d="M31.15,26.37c-1.45,0-2.62-1.18-2.62-2.62s1.18-2.62,2.62-2.62,2.62,1.18,2.62,2.62-1.18,2.62-2.62,2.62ZM31.15,22.46c-.71,0-1.29.58-1.29,1.29s.58,1.29,1.29,1.29,1.29-.58,1.29-1.29-.58-1.29-1.29-1.29Z"/>
      <g>
        <path class="cls-2" d="M17.48,26.62c-.37,0-.67-.3-.67-.67v-4.23c0-.37.3-.67.67-.67s.67.3.67.67v4.23c0,.37-.3.67-.67.67Z"/>
        <path class="cls-2" d="M19.6,24.5h-4.23c-.37,0-.67-.3-.67-.67s.3-.67.67-.67h4.23c.37,0,.67.3.67.67s-.3.67-.67.67Z"/>
      </g>
    </g>
  </g>
</svg>