<?xml version="1.0" encoding="UTF-8"?>
<svg id="Capa_6" data-name="Capa 6" xmlns="http://www.w3.org/2000/svg" viewBox="0 0 48 48">
  <defs>
    <style>
      .cls-1 {
        fill: #002b4a;
      }

      .cls-1, .cls-2 {
        stroke-width: 0px;
      }

      .cls-2 {
        fill: #d6acff;
      }
    </style>
  </defs>
  <rect class="cls-2" x="3.33" y="3.33" width="41.33" height="41.33" rx="5.17" ry="5.17"/>
  <path class="cls-1" d="M24.19,37.06c-2.74,0-4.98-2.23-4.98-4.98V14.13c0-.37.3-.67.67-.67s.67.3.67.67v17.96c0,2.01,1.63,3.64,3.64,3.64s3.64-1.63,3.64-3.64V14.13c0-1.22-.99-2.21-2.21-2.21s-2.21.99-2.21,2.21v16.52c0,.42.35.77.77.77s.77-.35.77-.77v-14.19c0-.37.3-.67.67-.67s.67.3.67.67v14.19c0,1.16-.94,2.1-2.1,2.1s-2.1-.94-2.1-2.1V14.13c0-1.95,1.59-3.54,3.54-3.54s3.54,1.59,3.54,3.54v17.96c0,2.74-2.23,4.98-4.98,4.98Z"/>
</svg>