<?xml version="1.0" encoding="UTF-8"?>
<svg id="Capa_6" data-name="Capa 6" xmlns="http://www.w3.org/2000/svg" viewBox="0 0 48 48">
  <defs>
    <style>
      .cls-1 {
        fill: #00caff;
      }

      .cls-1, .cls-2 {
        stroke-width: 0px;
      }

      .cls-2 {
        fill: #002b4a;
      }
    </style>
  </defs>
  <circle class="cls-1" cx="24" cy="24" r="20"/>
  <g>
    <path class="cls-2" d="M18.56,33.44c-.37,0-.67-.3-.67-.67v-12.98c0-1.45,1.18-2.62,2.62-2.62s2.62,1.18,2.62,2.62v10.92c0,.37-.3.67-.67.67s-.67-.3-.67-.67v-10.92c0-.71-.58-1.29-1.29-1.29s-1.29.58-1.29,1.29v12.98c0,.37-.3.67-.67.67Z"/>
    <path class="cls-2" d="M14.69,36.1c-.37,0-.67-.3-.67-.67v-2.5c0-2.53,2.06-4.58,4.58-4.58.37,0,.67.3.67.67s-.3.67-.67.67c-1.79,0-3.25,1.46-3.25,3.25v2.5c0,.37-.3.67-.67.67Z"/>
    <path class="cls-2" d="M26.39,32.07c-.37,0-.67-.3-.67-.67,0-.76-.64-1.51-1.41-1.65-.33-.06-.63,0-.85.19-.21.18-.32.45-.32.76,0,.37-.3.67-.67.67s-.67-.3-.67-.67c0-.72.28-1.35.8-1.78.52-.43,1.22-.61,1.94-.48,1.41.25,2.51,1.55,2.51,2.96,0,.37-.3.67-.67.67Z"/>
    <path class="cls-2" d="M30.35,32.8c-.37,0-.67-.3-.67-.67,0-.76-.64-1.51-1.41-1.65-.33-.06-.63,0-.85.19-.21.18-.32.45-.32.76,0,.37-.3.67-.67.67s-.67-.3-.67-.67c0-.72.28-1.35.8-1.78.52-.43,1.23-.61,1.94-.48,1.41.25,2.51,1.55,2.51,2.96,0,.37-.3.67-.67.67Z"/>
    <path class="cls-2" d="M34.32,36.1c-.37,0-.67-.3-.67-.67v-2.56c0-.76-.64-1.51-1.41-1.65-.33-.06-.63,0-.85.19-.21.18-.32.45-.32.76,0,.37-.3.67-.67.67s-.67-.3-.67-.67c0-.72.28-1.35.8-1.78.52-.43,1.22-.61,1.94-.48,1.41.25,2.51,1.55,2.51,2.96v2.56c0,.37-.3.67-.67.67Z"/>
    <path class="cls-2" d="M16.64,21.52c-.26,0-.51-.16-.62-.41-.75-1.8-.34-3.86,1.04-5.24,1.87-1.87,4.92-1.87,6.79,0,1.38,1.37,1.79,3.43,1.05,5.22-.14.34-.53.5-.87.36-.34-.14-.5-.53-.36-.87.53-1.3.24-2.78-.76-3.77-1.35-1.35-3.55-1.35-4.91,0-1,1-1.29,2.48-.75,3.78.14.34-.02.73-.36.87-.08.03-.17.05-.26.05Z"/>
    <path class="cls-2" d="M26.21,23.62c-.12,0-.24-.03-.35-.1-.31-.2-.41-.61-.21-.92,1.52-2.43,1.17-5.54-.86-7.57-1.15-1.15-2.69-1.79-4.32-1.79s-3.17.64-4.32,1.79c-2.02,2.02-2.38,5.12-.88,7.54.19.31.1.72-.22.92-.31.19-.72.1-.92-.22-1.83-2.95-1.39-6.73,1.07-9.18,2.9-2.9,7.63-2.9,10.53,0,2.47,2.47,2.9,6.26,1.05,9.22-.13.2-.34.31-.57.31Z"/>
  </g>
</svg>