<?xml version="1.0" encoding="UTF-8"?>
<svg id="Capa_6" data-name="Capa 6" xmlns="http://www.w3.org/2000/svg" viewBox="0 0 48 48">
  <defs>
    <style>
      .cls-1 {
        fill: #00ed7b;
      }

      .cls-1, .cls-2 {
        stroke-width: 0px;
      }

      .cls-2 {
        fill: #002b4a;
      }
    </style>
  </defs>
  <rect class="cls-1" x="6.2" y="5.53" width="35.61" height="35.61" rx="4.45" ry="4.45" transform="translate(-9.47 23.8) rotate(-45)"/>
  <g>
    <path class="cls-2" d="M21.73,29.65c-4.74,0-8.59-3.85-8.59-8.59s3.85-8.59,8.59-8.59,8.59,3.85,8.59,8.59-3.85,8.59-8.59,8.59ZM21.73,13.77c-4.02,0-7.29,3.27-7.29,7.29s3.27,7.29,7.29,7.29,7.29-3.27,7.29-7.29-3.27-7.29-7.29-7.29Z"/>
    <path class="cls-2" d="M34.21,34.19c-.17,0-.33-.06-.46-.19l-6.76-6.76c-.25-.25-.25-.66,0-.92s.66-.25.92,0l6.76,6.76c.25.25.25.66,0,.92-.13.13-.29.19-.46.19Z"/>
    <g>
      <path class="cls-2" d="M21.73,24.79c-3.55,0-6.34-3.16-6.46-3.3-.21-.24-.21-.61,0-.85.12-.13,2.91-3.3,6.46-3.3s6.34,3.16,6.46,3.3c.21.24.21.61,0,.85-.12.13-2.91,3.3-6.46,3.3ZM16.67,21.06c.83.8,2.82,2.43,5.06,2.43s4.23-1.63,5.06-2.43c-.83-.8-2.82-2.43-5.06-2.43s-4.23,1.63-5.06,2.43Z"/>
      <path class="cls-2" d="M21.73,24.24c-1.75,0-3.18-1.43-3.18-3.18s1.43-3.18,3.18-3.18,3.18,1.43,3.18,3.18-1.43,3.18-3.18,3.18ZM21.73,19.18c-1.04,0-1.88.84-1.88,1.88s.84,1.88,1.88,1.88,1.88-.84,1.88-1.88-.84-1.88-1.88-1.88Z"/>
    </g>
  </g>
</svg>