<?xml version="1.0" encoding="UTF-8"?>
<svg id="Capa_2" data-name="Capa 2" xmlns="http://www.w3.org/2000/svg" viewBox="0 0 48 48">
  <defs>
    <style>
      .cls-1 {
        fill: #00ed7b;
      }

      .cls-1, .cls-2 {
        stroke-width: 0px;
      }

      .cls-2 {
        fill: #002b4a;
      }
    </style>
  </defs>
  <rect class="cls-1" x="6.45" y="5.45" width="35.1" height="35.1" rx="4.39" ry="4.39" transform="translate(-9.23 23.71) rotate(-45)"/>
  <g>
    <g>
      <path class="cls-2" d="M33.7,33.25H14.32c-1.35,0-2.45-1.1-2.45-2.45v-15.55c0-1.35,1.1-2.45,2.45-2.45h19.39c1.35,0,2.45,1.1,2.45,2.45v15.55c0,1.35-1.1,2.45-2.45,2.45ZM14.32,14.08c-.64,0-1.17.52-1.17,1.17v15.55c0,.64.52,1.17,1.17,1.17h19.39c.64,0,1.17-.52,1.17-1.17v-15.55c0-.64-.52-1.17-1.17-1.17H14.32Z"/>
      <path class="cls-2" d="M18.62,28.45h-5.75c-.35,0-.64-.29-.64-.64s.29-.64.64-.64h5.75c.35,0,.64.29.64.64s-.29.64-.64.64Z"/>
      <path class="cls-2" d="M18.62,23.66h-5.75c-.35,0-.64-.29-.64-.64s.29-.64.64-.64h5.75c.35,0,.64.29.64.64s-.29.64-.64.64Z"/>
      <path class="cls-2" d="M35.51,18.87H12.51c-.35,0-.64-.29-.64-.64s.29-.64.64-.64h23c.35,0,.64.29.64.64s-.29.64-.64.64Z"/>
      <path class="cls-2" d="M18.9,33.25c-.35,0-.64-.29-.64-.64V13.44c0-.35.29-.64.64-.64s.64.29.64.64v19.17c0,.35-.29.64-.64.64Z"/>
      <path class="cls-2" d="M24.46,18.63c-.35,0-.64-.29-.64-.64v-4.55c0-.35.29-.64.64-.64s.64.29.64.64v4.55c0,.35-.29.64-.64.64Z"/>
      <path class="cls-2" d="M30.02,18.63c-.35,0-.64-.29-.64-.64v-4.55c0-.35.29-.64.64-.64s.64.29.64.64v4.55c0,.35-.29.64-.64.64Z"/>
    </g>
    <path class="cls-2" d="M21.85,21.54c-.09,0-.19-.02-.28-.06-.09-.04-.17-.09-.23-.16-.07-.07-.12-.15-.16-.23-.04-.09-.06-.18-.06-.28,0-.05,0-.09.01-.15.01-.04.03-.09.04-.14.02-.04.04-.08.07-.12.03-.04.06-.07.09-.11.07-.07.15-.12.23-.16.18-.07.38-.07.56,0,.09.04.17.09.23.16.04.04.07.07.09.11.02.04.04.08.07.12.01.04.03.09.04.14.01.05.02.09.02.15,0,.19-.08.38-.22.51-.07.07-.15.12-.23.16-.09.04-.18.06-.28.06Z"/>
    <path class="cls-2" d="M21.37,26.6c-.2,0-.39-.09-.51-.26l-.64-.85c-.21-.28-.15-.68.13-.89.28-.21.68-.15.89.13l.13.17.77-1.02c.21-.28.61-.34.89-.13.28.21.34.61.13.89l-1.28,1.7c-.12.16-.31.26-.51.26Z"/>
    <path class="cls-2" d="M31.99,22.45c-.2,0-.39-.09-.51-.26l-.64-.85c-.21-.28-.15-.68.13-.89.28-.21.68-.15.89.13l.13.17.77-1.02c.21-.28.61-.34.89-.13.28.21.34.61.13.89l-1.28,1.7c-.12.16-.31.26-.51.26Z"/>
    <path class="cls-2" d="M31.99,30.76c-.2,0-.39-.09-.51-.26l-.64-.85c-.21-.28-.15-.68.13-.89.28-.21.68-.15.89.13l.13.17.77-1.02c.21-.28.61-.34.89-.13.28.21.34.61.13.89l-1.28,1.7c-.12.16-.31.26-.51.26Z"/>
    <path class="cls-2" d="M21.85,31c-.09,0-.19-.02-.28-.06-.09-.04-.17-.09-.23-.16-.07-.07-.12-.15-.16-.23-.04-.09-.06-.18-.06-.28,0-.05,0-.09.01-.15.01-.04.03-.09.04-.14.02-.04.04-.08.07-.12.03-.04.06-.07.09-.11.07-.07.15-.12.23-.16.18-.07.38-.07.56,0,.09.04.17.09.23.16.04.04.07.07.09.11.02.04.04.08.07.12.01.05.03.09.04.14.01.05.02.09.02.15,0,.09-.02.19-.06.28-.04.09-.09.17-.16.23-.14.14-.32.22-.52.22Z"/>
    <path class="cls-2" d="M27.59,21.54c-.09,0-.19-.02-.28-.06-.09-.04-.17-.09-.23-.16-.07-.07-.12-.15-.16-.23-.04-.09-.06-.18-.06-.28,0-.05,0-.09.01-.15.01-.04.03-.09.04-.14.02-.04.04-.08.07-.12.03-.04.06-.07.09-.11.07-.07.15-.12.23-.16.18-.07.38-.07.56,0,.09.04.17.09.23.16.04.04.07.07.09.11.02.04.04.08.07.12.01.04.03.09.04.14.01.05.02.09.02.15,0,.19-.08.38-.22.51-.07.07-.15.12-.23.16-.09.04-.18.06-.28.06Z"/>
    <path class="cls-2" d="M27.59,31c-.09,0-.19-.02-.28-.06-.09-.04-.17-.09-.23-.16-.07-.07-.12-.15-.16-.23-.04-.09-.06-.18-.06-.28,0-.05,0-.09.01-.15.01-.04.03-.09.04-.14.02-.04.04-.08.07-.12.03-.04.06-.07.09-.11.07-.07.15-.12.23-.16.18-.07.38-.07.56,0,.09.04.17.09.23.16.04.04.07.07.09.11.02.04.04.08.07.12.01.05.03.09.04.14.01.05.02.09.02.15,0,.09-.02.19-.06.28-.04.09-.09.17-.16.23-.14.14-.32.22-.52.22Z"/>
    <path class="cls-2" d="M27.5,26.18s-.08,0-.13-.01c-.04-.01-.08-.02-.11-.04-.04-.02-.08-.04-.11-.06-.03-.03-.06-.05-.1-.08-.06-.06-.1-.13-.14-.2-.03-.08-.04-.16-.04-.24s.01-.17.04-.25c.03-.08.08-.15.14-.2.03-.03.06-.06.1-.08.04-.03.07-.04.11-.06.04-.01.08-.03.11-.03.21-.04.43.03.58.17.06.06.11.13.14.2.03.08.05.17.05.25s-.02.17-.05.24c-.03.08-.08.15-.14.2-.11.12-.28.19-.45.19Z"/>
    <path class="cls-2" d="M32.72,26.18c-.09,0-.17-.02-.25-.05-.08-.03-.15-.08-.2-.14-.12-.12-.19-.28-.19-.45s.07-.33.19-.45c.06-.06.13-.11.2-.14.24-.1.52-.04.7.14.12.12.19.28.19.45s-.06.33-.19.45c-.11.12-.28.19-.45.19Z"/>
  </g>
</svg>