<?xml version="1.0" encoding="UTF-8"?>
<svg id="Capa_6" data-name="Capa 6" xmlns="http://www.w3.org/2000/svg" viewBox="0 0 48 48">
  <defs>
    <style>
      .cls-1 {
        fill: #002b4a;
      }

      .cls-1, .cls-2 {
        stroke-width: 0px;
      }

      .cls-2 {
        fill: #d6acff;
      }
    </style>
  </defs>
  <rect class="cls-2" x="3.33" y="3.33" width="41.33" height="41.33" rx="5.17" ry="5.17"/>
  <g>
    <path class="cls-1" d="M31.03,33.33h-14.06c-1.78,0-3.22-1.45-3.22-3.22v-4.38c0-.37.3-.67.67-.67s.67.3.67.67v4.38c0,1.04.85,1.89,1.89,1.89h14.06c1.04,0,1.89-.85,1.89-1.89v-4.38c0-.37.3-.67.67-.67s.67.3.67.67v4.38c0,1.78-1.45,3.22-3.22,3.22Z"/>
    <path class="cls-1" d="M24,30.51c-.18,0-.36-.07-.48-.21l-7.45-7.78c-.25-.27-.25-.69.02-.94.26-.25.69-.25.94.02l6.97,7.28,6.96-7.28c.26-.27.68-.27.94-.02.27.25.28.68.02.94l-7.45,7.78c-.13.13-.3.21-.48.21Z"/>
    <path class="cls-1" d="M24,29.07c-.37,0-.67-.3-.67-.67v-14.41c0-.37.3-.67.67-.67s.67.3.67.67v14.41c0,.37-.3.67-.67.67Z"/>
  </g>
</svg>