<?xml version="1.0" encoding="UTF-8"?>
<svg id="Capa_6" data-name="Capa 6" xmlns="http://www.w3.org/2000/svg" viewBox="0 0 48 48">
  <defs>
    <style>
      .cls-1 {
        fill: #002b4a;
      }

      .cls-1, .cls-2 {
        stroke-width: 0px;
      }

      .cls-2 {
        fill: #d6acff;
      }
    </style>
  </defs>
  <rect class="cls-2" x="3.33" y="3.33" width="41.33" height="41.33" rx="5.17" ry="5.17"/>
  <path class="cls-1" d="M30.68,36.23c-.35,0-.7-.08-1.02-.25l-5.62-2.96-5.62,2.96c-.75.39-1.63.33-2.31-.17-.68-.49-1.01-1.31-.87-2.14l1.07-6.26-4.55-4.43c-.6-.59-.81-1.45-.55-2.25s.94-1.37,1.77-1.49l6.28-.91,2.81-5.69c.37-.75,1.12-1.22,1.96-1.22h0c.84,0,1.59.47,1.96,1.22l2.81,5.69,6.28.91c.83.12,1.51.69,1.77,1.49.26.8.05,1.66-.55,2.25l-4.55,4.43,1.07,6.26c.14.83-.19,1.65-.87,2.14-.38.28-.83.42-1.29.42ZM24.04,31.61c.11,0,.21.03.31.08l5.93,3.12c.29.16.63.13.9-.07.27-.2.4-.51.34-.84l-1.13-6.61c-.04-.22.03-.44.19-.59l4.8-4.68c.24-.23.32-.56.22-.88-.1-.32-.36-.54-.69-.58l-6.63-.96c-.22-.03-.4-.17-.5-.36l-2.97-6.01h0c-.15-.3-.43-.48-.77-.48h0c-.33,0-.62.18-.77.48l-2.97,6.01c-.1.2-.28.33-.5.36l-6.63.96c-.33.05-.59.27-.69.58s-.02.65.22.88l4.8,4.68c.16.15.23.37.19.59l-1.13,6.61c-.06.33.07.64.34.84s.61.22.9.07l5.93-3.12c.1-.05.2-.08.31-.08Z"/>
</svg>