<?xml version="1.0" encoding="UTF-8"?>
<svg id="Capa_6" data-name="Capa 6" xmlns="http://www.w3.org/2000/svg" viewBox="0 0 48 48">
  <defs>
    <style>
      .cls-1 {
        fill: #00caff;
      }

      .cls-1, .cls-2 {
        stroke-width: 0px;
      }

      .cls-2, .cls-3 {
        fill: #002b4a;
      }

      .cls-3 {
        stroke: #002b4a;
        stroke-linecap: round;
        stroke-linejoin: round;
        stroke-width: 1.33px;
      }
    </style>
  </defs>
  <circle class="cls-1" cx="24" cy="24" r="20.67"/>
  <g>
    <path class="cls-2" d="M18.33,35.3c-.37,0-.67-.3-.67-.67v-9.43c0-.37.3-.67.67-.67s.67.3.67.67v9.43c0,.37-.3.67-.67.67Z"/>
    <path class="cls-2" d="M24,35.3c-.37,0-.67-.3-.67-.67v-9.43c0-.37.3-.67.67-.67s.67.3.67.67v9.43c0,.37-.3.67-.67.67Z"/>
    <path class="cls-2" d="M29.67,35.3c-.37,0-.67-.3-.67-.67v-9.43c0-.37.3-.67.67-.67s.67.3.67.67v9.43c0,.37-.3.67-.67.67Z"/>
    <path class="cls-2" d="M32.25,35.3H15.75c-2.08,0-3.77-1.69-3.77-3.77v-15.07c0-2.08,1.69-3.77,3.77-3.77h16.49c2.08,0,3.77,1.69,3.77,3.77v15.07c0,2.08-1.69,3.77-3.77,3.77ZM15.75,14.03c-1.34,0-2.44,1.09-2.44,2.44v15.07c0,1.34,1.09,2.44,2.44,2.44h16.49c1.34,0,2.44-1.09,2.44-2.44v-15.07c0-1.34-1.09-2.44-2.44-2.44H15.75Z"/>
    <g>
      <polyline class="cls-3" points="19.74 13.92 19.74 25.33 16.91 24.71 16.91 13.3"/>
      <polyline class="cls-3" points="25.42 13.92 25.42 25.33 22.58 24.71 22.58 13.3"/>
      <polyline class="cls-3" points="31.09 13.92 31.09 25.33 28.26 25.33 28.26 13.92"/>
    </g>
  </g>
</svg>