<?xml version="1.0" encoding="UTF-8"?>
<svg id="Capa_6" data-name="Capa 6" xmlns="http://www.w3.org/2000/svg" viewBox="0 0 48 48">
  <defs>
    <style>
      .cls-1 {
        fill: #00caff;
      }

      .cls-1, .cls-2 {
        stroke-width: 0px;
      }

      .cls-2 {
        fill: #002b4a;
      }
    </style>
  </defs>
  <circle class="cls-1" cx="24" cy="24" r="20.67"/>
  <g>
    <g>
      <path class="cls-2" d="M16.16,20.02h-.01c-.18,0-.36-.09-.48-.22l-1.2-1.39c-.23-.27-.2-.68.07-.91.27-.23.68-.2.91.07l.73.85,2.42-2.59c.24-.26.65-.28.91-.03.26.24.28.65.03.91l-2.91,3.12c-.12.13-.29.21-.47.21Z"/>
      <path class="cls-2" d="M33.04,18.46h-10.92c-.36,0-.65-.29-.65-.65s.29-.65.65-.65h10.92c.36,0,.65.29.65.65s-.29.65-.65.65Z"/>
    </g>
    <g>
      <path class="cls-2" d="M16.16,26.21h-.01c-.18,0-.36-.09-.48-.22l-1.2-1.39c-.23-.27-.2-.68.07-.91.27-.23.68-.2.91.07l.73.85,2.42-2.59c.24-.26.65-.27.91-.03.26.24.28.65.03.91l-2.91,3.12c-.12.13-.29.21-.47.21Z"/>
      <path class="cls-2" d="M33.04,24.65h-10.92c-.36,0-.65-.29-.65-.65s.29-.65.65-.65h10.92c.36,0,.65.29.65.65s-.29.65-.65.65Z"/>
    </g>
    <g>
      <path class="cls-2" d="M16.16,32.4h-.01c-.18,0-.36-.09-.48-.22l-1.2-1.39c-.23-.27-.2-.68.07-.91.27-.23.68-.2.91.07l.73.85,2.42-2.59c.24-.26.65-.27.91-.03.26.24.28.65.03.91l-2.91,3.12c-.12.13-.29.21-.47.21Z"/>
      <path class="cls-2" d="M33.04,30.83h-10.92c-.36,0-.65-.29-.65-.65s.29-.65.65-.65h10.92c.36,0,.65.29.65.65s-.29.65-.65.65Z"/>
    </g>
  </g>
</svg>