<?xml version="1.0" encoding="UTF-8"?>
<svg id="Capa_6" data-name="Capa 6" xmlns="http://www.w3.org/2000/svg" viewBox="0 0 48 48">
  <defs>
    <style>
      .cls-1 {
        fill: #00ed7b;
      }

      .cls-1, .cls-2 {
        stroke-width: 0px;
      }

      .cls-2 {
        fill: #002b4a;
      }
    </style>
  </defs>
  <rect class="cls-1" x="6.2" y="5.53" width="35.61" height="35.61" rx="4.45" ry="4.45" transform="translate(-9.47 23.8) rotate(-45)"/>
  <g>
    <g>
      <path class="cls-2" d="M31.16,16.88c-.18,0-.35-.07-.47-.2-.14-.14-.21-.33-.19-.53l.31-3.7c.03-.37.36-.64.72-.61.37.03.64.35.61.72l-.24,2.91,2.91-.24c.37-.03.69.24.72.61.03.37-.24.69-.61.72l-3.7.31s-.04,0-.06,0Z"/>
      <path class="cls-2" d="M28.66,19.38c-.18,0-.35-.07-.47-.2-.14-.14-.21-.33-.19-.53l.31-3.7c.03-.37.36-.64.72-.61.37.03.64.35.61.72l-.24,2.91,2.91-.24c.37-.03.69.24.72.61.03.37-.24.69-.61.72l-3.7.31s-.04,0-.06,0Z"/>
      <path class="cls-2" d="M24.11,23.93c-.17,0-.34-.07-.47-.2-.26-.26-.26-.68,0-.94l7.08-7.08c.26-.26.68-.26.94,0s.26.68,0,.94l-7.08,7.08c-.13.13-.3.2-.47.2Z"/>
    </g>
    <g>
      <path class="cls-2" d="M24,26.44c-1.69,0-3.07-1.38-3.07-3.07s1.38-3.07,3.07-3.07c.37,0,.67.3.67.67s-.3.67-.67.67c-.96,0-1.73.78-1.73,1.73s.78,1.73,1.73,1.73,1.73-.78,1.73-1.73c0-.37.3-.67.67-.67s.67.3.67.67c0,1.69-1.38,3.07-3.07,3.07Z"/>
      <path class="cls-2" d="M23.71,31.09c-2.1,0-4.28-.81-5.88-2.84-1.95-2.47-2.14-5.8-.5-8.68,1.65-2.89,4.61-4.41,7.74-3.99.36.05.62.39.57.75s-.38.62-.75.57c-3.08-.42-5.32,1.45-6.4,3.33-1.07,1.88-1.54,4.76.39,7.19,2.23,2.83,5.58,2.69,7.76,1.7,2.16-.97,4.45-3.35,3.82-6.87-.07-.36.18-.71.54-.77.36-.06.71.18.77.54.63,3.51-1.17,6.78-4.58,8.32-1.04.47-2.24.75-3.47.75Z"/>
      <path class="cls-2" d="M24.23,35.95c-1.53,0-3.09-.28-4.61-.84-3.78-1.4-6.6-4.32-7.73-8.01-1.31-4.28-.18-8.87,3.02-12.27,3.21-3.41,7.73-4.82,12.09-3.76.36.09.58.45.49.8-.09.36-.45.58-.8.49-3.89-.94-7.93.32-10.8,3.38-2.87,3.05-3.89,7.15-2.72,10.96,1.01,3.29,3.53,5.89,6.92,7.15,3.42,1.27,7.06.93,9.99-.92,4.05-2.56,6.07-7.64,4.9-12.35-.09-.36.13-.72.49-.81.35-.09.72.13.81.49,1.31,5.26-.95,10.93-5.48,13.79-1.98,1.25-4.24,1.89-6.56,1.89Z"/>
    </g>
  </g>
</svg>