<?xml version="1.0" encoding="UTF-8"?>
<svg id="Capa_6" data-name="Capa 6" xmlns="http://www.w3.org/2000/svg" viewBox="0 0 48 48">
  <defs>
    <style>
      .cls-1 {
        fill: #00caff;
      }

      .cls-1, .cls-2 {
        stroke-width: 0px;
      }

      .cls-2 {
        fill: #002b4a;
      }
    </style>
  </defs>
  <circle class="cls-1" cx="24" cy="24" r="20.67"/>
  <g>
    <path class="cls-2" d="M31.41,33.52c-.49,0-.97-.21-1.32-.59l-1.31-1.45h-4.26c-1.95,0-3.54-1.59-3.54-3.54v-6.78c0-1.95,1.59-3.54,3.54-3.54h10.7c1.95,0,3.54,1.59,3.54,3.54v6.78c0,1.95-1.59,3.54-3.54,3.54h-2.02v.21c.02.75-.42,1.42-1.12,1.7-.22.09-.44.13-.67.13ZM24.52,18.95c-1.22,0-2.21.99-2.21,2.21v6.78c0,1.22.99,2.21,2.21,2.21h4.56c.19,0,.37.08.5.22l1.51,1.67c.19.21.42.15.5.12.09-.03.29-.15.29-.43l-.02-.89c0-.18.06-.35.19-.48.12-.13.3-.2.48-.2h2.7c1.22,0,2.21-.99,2.21-2.21v-6.78c0-1.22-.99-2.21-2.21-2.21h-10.7Z"/>
    <path class="cls-2" d="M16.59,30.39c-.22,0-.45-.04-.67-.13-.7-.28-1.14-.95-1.13-1.7v-.21s-2.01,0-2.01,0c-1.95,0-3.54-1.59-3.54-3.54v-6.78c0-1.95,1.59-3.54,3.54-3.54h10.7c1.95,0,3.54,1.59,3.54,3.54,0,.37-.3.67-.67.67s-.67-.3-.67-.67c0-1.22-.99-2.21-2.21-2.21h-10.7c-1.22,0-2.21.99-2.21,2.21v6.78c0,1.22.99,2.21,2.21,2.21h2.7c.18,0,.35.07.48.2.12.13.19.3.19.48l-.02.89c0,.28.2.4.29.43s.31.09.51-.12l1.5-1.67c.13-.14.31-.22.5-.22h2.21c.37,0,.67.3.67.67s-.3.67-.67.67h-1.91l-1.31,1.45c-.35.39-.83.59-1.32.59Z"/>
  </g>
</svg>