<?xml version="1.0" encoding="UTF-8"?>
<svg id="Capa_6" data-name="Capa 6" xmlns="http://www.w3.org/2000/svg" viewBox="0 0 48 48">
  <defs>
    <style>
      .cls-1 {
        fill: #002b4a;
      }

      .cls-1, .cls-2 {
        stroke-width: 0px;
      }

      .cls-2 {
        fill: #d6acff;
      }
    </style>
  </defs>
  <rect class="cls-2" x="3.33" y="3.33" width="41.33" height="41.33" rx="5.17" ry="5.17"/>
  <g>
    <path class="cls-1" d="M26.98,25.21c-.21,0-.43-.05-.63-.16l-2.32-1.22-2.32,1.22c-.46.24-1,.2-1.41-.1-.42-.3-.62-.81-.53-1.31l.44-2.58-1.88-1.83c-.37-.36-.5-.89-.34-1.38s.57-.84,1.08-.91l2.59-.38,1.16-2.35c.23-.46.69-.75,1.2-.75s.98.29,1.2.75l1.16,2.35,2.59.38c.51.07.92.42,1.08.91.16.49.03,1.02-.34,1.38l-1.88,1.83.44,2.58c.09.51-.12,1.01-.53,1.31-.24.17-.51.26-.79.26ZM24.04,22.42c.11,0,.21.03.31.08l2.63,1.38-.49-2.93c-.04-.22.03-.44.19-.59l2.13-2.07-2.94-.44c-.22-.03-.4-.17-.5-.36l-1.31-2.66h0s0,0,0,0l-1.33,2.67c-.1.2-.28.33-.5.36l-2.94.43,2.12,2.09c.16.15.23.37.19.59l-.5,2.93,2.64-1.37c.1-.05.2-.08.31-.08Z"/>
    <path class="cls-1" d="M24.04,38.21c-.19,0-.38-.08-.51-.23-.42-.49-10.27-12-10.27-17.76s4.83-10.77,10.77-10.77,10.77,4.83,10.77,10.77-9.85,17.27-10.27,17.76c-.13.15-.31.23-.51.23ZM24.04,10.78c-5.2,0-9.44,4.23-9.44,9.44,0,4.58,7.41,13.84,9.44,16.29,2.03-2.45,9.44-11.71,9.44-16.29,0-5.2-4.23-9.44-9.44-9.44Z"/>
  </g>
</svg>