<?xml version="1.0" encoding="UTF-8"?>
<svg id="Capa_6" data-name="Capa 6" xmlns="http://www.w3.org/2000/svg" viewBox="0 0 48 48">
  <defs>
    <style>
      .cls-1 {
        fill: #00ed7b;
      }

      .cls-1, .cls-2 {
        stroke-width: 0px;
      }

      .cls-2 {
        fill: #002b4a;
      }
    </style>
  </defs>
  <rect class="cls-1" x="6.2" y="6.2" width="35.61" height="35.61" rx="4.45" ry="4.45" transform="translate(-9.94 24) rotate(-45)"/>
  <g transform="translate(-1.5614948,1.5726199)">
    <g>
      <path class="cls-2" d="M28.42,25.78c-.21,0-.42-.04-.62-.12-.66-.26-1.07-.89-1.05-1.59v-.12s-1.05,0-1.05,0c-1.79,0-3.24-1.45-3.24-3.24v-6.08c0-1.79,1.45-3.24,3.24-3.24h8.23c1.79,0,3.24,1.45,3.24,3.24v6.08c0,1.79-1.45,3.24-3.24,3.24h-3.11l-1.15,1.28c-.33.36-.77.56-1.24.56ZM25.69,12.71c-1.05,0-1.91.86-1.91,1.91v6.08c0,1.05.86,1.91,1.91,1.91h1.74c.18,0,.35.07.48.2.12.13.19.3.19.48l-.02.8c0,.21.15.3.21.32.07.03.24.07.38-.09l1.35-1.5c.13-.14.31-.22.5-.22h3.41c1.05,0,1.91-.86,1.91-1.91v-6.08c0-1.05-.86-1.91-1.91-1.91h-8.23Z"/>
      <g>
        <path class="cls-2" d="M29.7,17.15h0c.22,0,.37.2.32.41l-.7,2.87c-.06.23-.09.37-.09.41,0,.05.02.1.05.13s.08.05.14.05c.09,0,.18-.04.3-.11.18-.11.41-.07.54.09h0c.15.18.11.44-.07.59-.4.32-.82.48-1.26.48-.25,0-.45-.04-.62-.13s-.31-.21-.41-.38-.15-.33-.15-.48c0-.06.01-.15.03-.29.03-.2.06-.37.09-.49l.45-1.82h-.35c-.31,0-.53-.29-.46-.59h0c.05-.19.21-.33.4-.36.62-.08,1.19-.2,1.71-.36.03,0,.06-.01.1-.01Z"/>
        <path class="cls-2" d="M29.54,14.45c.33,0,.58.1.76.31s.27.46.27.75c0,.22-.06.42-.17.62s-.27.36-.48.48-.41.18-.6.18c-.18,0-.36-.05-.54-.15s-.32-.23-.41-.39-.14-.34-.14-.53c0-.21.06-.42.18-.63s.28-.37.47-.48.42-.17.66-.17Z"/>
      </g>
    </g>
    <g>
      <path class="cls-2" d="M22.78,18.34h-6.7c-.37,0-.67-.3-.67-.67s.3-.67.67-.67h6.7c.37,0,.67.3.67.67s-.3.67-.67.67Z"/>
      <path class="cls-2" d="M23.55,23.3h-7.47c-.37,0-.67-.3-.67-.67s.3-.67.67-.67h7.47c.37,0,.67.3.67.67s-.3.67-.67.67Z"/>
      <path class="cls-2" d="M32.69,28.26h-16.61c-.37,0-.67-.3-.67-.67s.3-.67.67-.67h16.61c.37,0,.67.3.67.67s-.3.67-.67.67Z"/>
      <path class="cls-2" d="M32.69,33.22h-16.61c-.37,0-.67-.3-.67-.67s.3-.67.67-.67h16.61c.37,0,.67.3.67.67s-.3.67-.67.67Z"/>
    </g>
  </g>
</svg>