<?xml version="1.0" encoding="UTF-8"?>
<svg id="Capa_6" data-name="Capa 6" xmlns="http://www.w3.org/2000/svg" viewBox="0 0 48 48">
  <defs>
    <style>
      .cls-1 {
        fill: #00caff;
      }

      .cls-1, .cls-2 {
        stroke-width: 0px;
      }

      .cls-2 {
        fill: #002b4a;
      }
    </style>
  </defs>
  <circle class="cls-1" cx="24" cy="24" r="20.67"/>
  <g>
    <g>
      <path class="cls-2" d="M24,28.27c-3.84,0-6.97-3.13-6.97-6.97v-1.8c0-.37.3-.67.67-.67s.67.3.67.67v1.8c0,3.11,2.53,5.64,5.64,5.64s5.64-2.53,5.64-5.64v-1.8c0-.37.3-.67.67-.67s.67.3.67.67v1.8c0,3.84-3.13,6.97-6.97,6.97ZM24,24.67c-1.86,0-3.37-1.51-3.37-3.37v-4.5c0-1.86,1.51-3.37,3.37-3.37s3.37,1.51,3.37,3.37v4.5c0,1.86-1.51,3.37-3.37,3.37ZM24,14.76c-1.12,0-2.03.91-2.03,2.03v4.5c0,1.12.91,2.03,2.03,2.03s2.03-.91,2.03-2.03v-4.5c0-1.12-.91-2.03-2.03-2.03Z"/>
      <path class="cls-2" d="M24,34.57c-.37,0-.67-.3-.67-.67v-6.3c0-.37.3-.67.67-.67s.67.3.67.67v6.3c0,.37-.3.67-.67.67Z"/>
    </g>
    <g>
      <path class="cls-2" d="M33.68,30.42c-2.66,0-4.82-2.16-4.82-4.82v-1.19c0-.37.3-.67.67-.67s.67.3.67.67v1.19c0,1.92,1.56,3.49,3.49,3.49s3.49-1.56,3.49-3.49v-1.19c0-.37.3-.67.67-.67s.67.3.67.67v1.19c0,2.66-2.16,4.82-4.82,4.82ZM33.68,28.04c-1.35,0-2.45-1.1-2.45-2.45v-2.97c0-1.35,1.1-2.45,2.45-2.45s2.45,1.1,2.45,2.45v2.97c0,1.35-1.1,2.45-2.45,2.45ZM33.68,21.52c-.61,0-1.11.5-1.11,1.11v2.97c0,.61.5,1.11,1.11,1.11s1.11-.5,1.11-1.11v-2.97c0-.61-.5-1.11-1.11-1.11Z"/>
      <path class="cls-2" d="M33.68,34.57c-.37,0-.67-.3-.67-.67v-4.15c0-.37.3-.67.67-.67s.67.3.67.67v4.15c0,.37-.3.67-.67.67Z"/>
    </g>
    <g>
      <path class="cls-2" d="M14.32,30.42c-2.66,0-4.82-2.16-4.82-4.82v-1.19c0-.37.3-.67.67-.67s.67.3.67.67v1.19c0,1.92,1.56,3.49,3.49,3.49s3.49-1.56,3.49-3.49v-1.19c0-.37.3-.67.67-.67s.67.3.67.67v1.19c0,2.66-2.16,4.82-4.82,4.82ZM14.32,28.04c-1.35,0-2.45-1.1-2.45-2.45v-2.97c0-1.35,1.1-2.45,2.45-2.45s2.45,1.1,2.45,2.45v2.97c0,1.35-1.1,2.45-2.45,2.45ZM14.32,21.52c-.61,0-1.11.5-1.11,1.11v2.97c0,.61.5,1.11,1.11,1.11s1.11-.5,1.11-1.11v-2.97c0-.61-.5-1.11-1.11-1.11Z"/>
      <path class="cls-2" d="M14.32,34.57c-.37,0-.67-.3-.67-.67v-4.15c0-.37.3-.67.67-.67s.67.3.67.67v4.15c0,.37-.3.67-.67.67Z"/>
    </g>
  </g>
</svg>