<?xml version="1.0" encoding="UTF-8"?>
<svg id="Capa_6" data-name="Capa 6" xmlns="http://www.w3.org/2000/svg" viewBox="0 0 48 48">
  <defs>
    <style>
      .cls-1 {
        fill: #00caff;
      }

      .cls-1, .cls-2 {
        stroke-width: 0px;
      }

      .cls-2 {
        fill: #002b4a;
      }
    </style>
  </defs>
  <circle class="cls-1" cx="24" cy="24" r="20.67"/>
  <g>
    <g>
      <path class="cls-2" d="M31.99,23.63c-.24,0-.46-.13-.58-.34l-1.08-1.89h-2.24c-1.26,0-2.28-1.02-2.28-2.28v-3.92c0-1.25,1.02-2.28,2.28-2.28h6.15c1.26,0,2.28,1.02,2.28,2.28v3.92c0,1.25-1.02,2.28-2.28,2.28h-1.07l-.54,1.76c-.08.25-.3.44-.56.47-.02,0-.05,0-.07,0ZM28.09,14.26c-.52,0-.94.42-.94.94v3.92c0,.52.42.94.94.94h2.62c.24,0,.46.13.58.34l.51.89.23-.76c.09-.28.34-.47.64-.47h1.56c.52,0,.94-.42.94-.94v-3.92c0-.52-.42-.94-.94-.94h-6.15Z"/>
      <path class="cls-2" d="M16.01,24.63s-.06,0-.09,0c-.23-.03-.42-.18-.51-.38l-.5-1.11h-1.14c-1.26,0-2.28-1.02-2.28-2.28v-3.92c0-1.25,1.02-2.28,2.28-2.28h6.15c1.26,0,2.28,1.02,2.28,2.28v3.92c0,1.25-1.02,2.28-2.28,2.28h-2.32l-1.08,1.26c-.13.15-.31.23-.51.23ZM13.77,16c-.52,0-.94.42-.94.94v3.92c0,.52.42.94.94.94h1.56c.26,0,.5.15.61.39l.25.54.6-.7c.13-.15.31-.23.51-.23h2.62c.52,0,.94-.42.94-.94v-3.92c0-.52-.42-.94-.94-.94h-6.15Z"/>
      <path class="cls-2" d="M24.38,21.84c-.23,0-.44-.11-.56-.31l-1.22-1.92h-.74c-.37,0-.67-.3-.67-.67s.3-.67.67-.67h1.1c.23,0,.44.12.56.31l.58.91.17-.71c.07-.3.34-.51.65-.51h1.26c.37,0,.67.3.67.67s-.3.67-.67.67h-.74l-.42,1.72c-.06.26-.28.46-.54.5-.04,0-.07,0-.11,0Z"/>
      <path class="cls-2" d="M19.79,15.81c-.37,0-.67-.3-.67-.67v-1.72c0-1.25,1.02-2.28,2.28-2.28h6.12c1.27,0,2.3,1.03,2.3,2.3,0,.37-.3.67-.67.67s-.67-.3-.67-.67c0-.53-.43-.97-.97-.97h-6.12c-.52,0-.94.42-.94.94v1.72c0,.37-.3.67-.67.67Z"/>
    </g>
    <g>
      <g>
        <path class="cls-2" d="M16.21,30.85c-1.52,0-2.76-1.24-2.76-2.75s1.24-2.75,2.76-2.75,2.75,1.24,2.75,2.75-1.24,2.75-2.75,2.75ZM16.21,26.68c-.78,0-1.42.64-1.42,1.42s.64,1.42,1.42,1.42,1.42-.64,1.42-1.42-.64-1.42-1.42-1.42Z"/>
        <path class="cls-2" d="M20.13,36.86c-.37,0-.67-.3-.67-.67,0-1.79-1.46-3.25-3.25-3.25s-3.25,1.46-3.25,3.25c0,.37-.3.67-.67.67s-.67-.3-.67-.67c0-2.53,2.06-4.58,4.58-4.58s4.58,2.06,4.58,4.58c0,.37-.3.67-.67.67Z"/>
      </g>
      <g>
        <path class="cls-2" d="M24.04,30.85c-1.52,0-2.76-1.24-2.76-2.75s1.24-2.75,2.76-2.75,2.75,1.24,2.75,2.75-1.24,2.75-2.75,2.75ZM24.04,26.68c-.78,0-1.42.64-1.42,1.42s.64,1.42,1.42,1.42,1.42-.64,1.42-1.42-.64-1.42-1.42-1.42Z"/>
        <path class="cls-2" d="M27.96,36.86c-.37,0-.67-.3-.67-.67,0-1.79-1.46-3.25-3.25-3.25s-3.25,1.46-3.25,3.25c0,.37-.3.67-.67.67s-.67-.3-.67-.67c0-2.53,2.06-4.58,4.58-4.58s4.58,2.06,4.58,4.58c0,.37-.3.67-.67.67Z"/>
      </g>
      <g>
        <path class="cls-2" d="M31.88,30.85c-1.52,0-2.75-1.24-2.75-2.75s1.24-2.75,2.75-2.75,2.76,1.24,2.76,2.75-1.24,2.75-2.76,2.75ZM31.88,26.68c-.78,0-1.42.64-1.42,1.42s.64,1.42,1.42,1.42,1.42-.64,1.42-1.42-.64-1.42-1.42-1.42Z"/>
        <path class="cls-2" d="M35.79,36.86c-.37,0-.67-.3-.67-.67,0-1.79-1.46-3.25-3.25-3.25s-3.25,1.46-3.25,3.25c0,.37-.3.67-.67.67s-.67-.3-.67-.67c0-2.53,2.06-4.58,4.58-4.58s4.58,2.06,4.58,4.58c0,.37-.3.67-.67.67Z"/>
      </g>
    </g>
  </g>
</svg>