<?xml version="1.0" encoding="UTF-8"?>
<svg id="Capa_6" data-name="Capa 6" xmlns="http://www.w3.org/2000/svg" viewBox="0 0 48 48">
  <defs>
    <style>
      .cls-1 {
        fill: #002b4a;
      }

      .cls-1, .cls-2 {
        stroke-width: 0px;
      }

      .cls-2 {
        fill: #d6acff;
      }
    </style>
  </defs>
  <rect class="cls-2" x="3.33" y="3.33" width="41.33" height="41.33" rx="5.17" ry="5.17"/>
  <g>
    <g>
      <g>
        <path class="cls-1" d="M15.95,28.81c-1.56,0-2.83-1.27-2.83-2.83s1.27-2.83,2.83-2.83,2.83,1.27,2.83,2.83-1.27,2.83-2.83,2.83ZM15.95,24.47c-.83,0-1.5.67-1.5,1.5s.67,1.5,1.5,1.5,1.5-.67,1.5-1.5-.67-1.5-1.5-1.5Z"/>
        <path class="cls-1" d="M20.01,35.04c-.37,0-.67-.3-.67-.67,0-1.87-1.52-3.4-3.4-3.4s-3.4,1.52-3.4,3.4c0,.37-.3.67-.67.67s-.67-.3-.67-.67c0-2.61,2.12-4.73,4.73-4.73s4.73,2.12,4.73,4.73c0,.37-.3.67-.67.67Z"/>
      </g>
      <g>
        <path class="cls-1" d="M24.08,28.81c-1.56,0-2.83-1.27-2.83-2.83s1.27-2.83,2.83-2.83,2.83,1.27,2.83,2.83-1.27,2.83-2.83,2.83ZM24.08,24.47c-.83,0-1.5.67-1.5,1.5s.67,1.5,1.5,1.5,1.5-.67,1.5-1.5-.67-1.5-1.5-1.5Z"/>
        <path class="cls-1" d="M28.14,35.04c-.37,0-.67-.3-.67-.67,0-1.87-1.52-3.4-3.4-3.4s-3.4,1.52-3.4,3.4c0,.37-.3.67-.67.67s-.67-.3-.67-.67c0-2.61,2.12-4.73,4.73-4.73s4.73,2.12,4.73,4.73c0,.37-.3.67-.67.67Z"/>
      </g>
      <g>
        <path class="cls-1" d="M32.2,28.81c-1.56,0-2.83-1.27-2.83-2.83s1.27-2.83,2.83-2.83,2.83,1.27,2.83,2.83-1.27,2.83-2.83,2.83ZM32.2,24.47c-.83,0-1.5.67-1.5,1.5s.67,1.5,1.5,1.5,1.5-.67,1.5-1.5-.67-1.5-1.5-1.5Z"/>
        <path class="cls-1" d="M36.27,35.04c-.37,0-.67-.3-.67-.67,0-1.87-1.52-3.4-3.4-3.4s-3.4,1.52-3.4,3.4c0,.37-.3.67-.67.67s-.67-.3-.67-.67c0-2.61,2.12-4.73,4.73-4.73s4.73,2.12,4.73,4.73c0,.37-.3.67-.67.67Z"/>
      </g>
    </g>
    <path class="cls-1" d="M31.1,22.33c-.13,0-.27-.04-.38-.12l-3.09-2.17h-1.9l-1.06,1.94c-.23.43-.93.43-1.17,0l-1.06-1.94h-1.9l-3.09,2.17c-.24.17-.55.16-.78-.01-.23-.17-.32-.47-.23-.75l.47-1.41h-.05c-2.05,0-3.71-1.67-3.71-3.71s1.67-3.71,3.71-3.71h14.48c2.05,0,3.71,1.67,3.71,3.71s-1.67,3.71-3.71,3.71h-.05l.47,1.41c.09.27,0,.57-.23.75-.12.09-.26.13-.4.13ZM20.32,18.71h2.5c.24,0,.47.13.58.35l.67,1.22.67-1.22c.12-.21.34-.35.58-.35h2.5c.14,0,.27.04.38.12l1.61,1.13-.12-.37c-.07-.2-.03-.43.09-.6.13-.17.33-.28.54-.28h.98c1.31,0,2.38-1.07,2.38-2.38s-1.07-2.38-2.38-2.38h-14.48c-1.31,0-2.38,1.07-2.38,2.38s1.07,2.38,2.38,2.38h.98c.21,0,.42.1.54.28.12.17.16.4.09.6l-.12.37,1.61-1.13c.11-.08.25-.12.38-.12Z"/>
  </g>
</svg>