<?xml version="1.0" encoding="UTF-8"?>
<svg id="Capa_6" data-name="Capa 6" xmlns="http://www.w3.org/2000/svg" viewBox="0 0 48 48">
  <defs>
    <style>
      .cls-1 {
        fill: #00caff;
      }

      .cls-1, .cls-2 {
        stroke-width: 0px;
      }

      .cls-2 {
        fill: #002b4a;
      }
    </style>
  </defs>
  <circle class="cls-1" cx="24" cy="24" r="20.67"/>
  <g>
    <path class="cls-2" d="M22.53,36.1c-.98,0-1.84-.25-2.48-.75-.66-.51-1.02-1.25-1.02-2.08,0-2.01,2.11-4.14,4.8-4.83,1.64-.42,3.14-.23,4.12.53.66.51,1.02,1.25,1.02,2.08,0,2.01-2.11,4.14-4.8,4.83-.57.15-1.12.22-1.64.22ZM25.46,29.56c-.41,0-.85.06-1.29.17-2.06.53-3.8,2.15-3.8,3.54,0,.42.17.76.5,1.02.63.49,1.77.6,2.97.3,2.06-.53,3.8-2.15,3.8-3.54,0-.42-.17-.76-.5-1.02-.4-.31-.99-.47-1.68-.47Z"/>
    <path class="cls-2" d="M28.29,31.58c-.37,0-.67-.3-.67-.67V11.05c0-.37.3-.67.67-.67s.67.3.67.67v19.86c0,.37-.3.67-.67.67Z"/>
  </g>
</svg>