<?xml version="1.0" encoding="UTF-8"?>
<svg id="Capa_6" data-name="Capa 6" xmlns="http://www.w3.org/2000/svg" viewBox="0 0 48 48">
  <defs>
    <style>
      .cls-1 {
        fill: #00ed7b;
      }

      .cls-1, .cls-2 {
        stroke-width: 0px;
      }

      .cls-2 {
        fill: #002b4a;
      }
    </style>
  </defs>
  <rect class="cls-1" x="6.2" y="5.53" width="35.61" height="35.61" rx="4.45" ry="4.45" transform="translate(-9.47 23.8) rotate(-45)"/>
  <g transform="translate(1 0)">
    <g>
      <path class="cls-2" d="M31.42,33.34c-.49,0-.97-.21-1.32-.59l-1.31-1.45h-4.26c-1.95,0-3.54-1.59-3.54-3.54v-6.78c0-1.95,1.59-3.54,3.54-3.54h10.7c1.95,0,3.54,1.59,3.54,3.54v6.78c0,1.95-1.59,3.54-3.54,3.54h-2.02v.21c.02.75-.42,1.42-1.12,1.7-.22.09-.44.13-.67.13ZM24.52,18.77c-1.22,0-2.21.99-2.21,2.21v6.78c0,1.22.99,2.21,2.21,2.21h4.56c.19,0,.37.08.5.22l1.51,1.67c.19.21.42.15.5.12.09-.04.29-.15.29-.43l-.02-.89c0-.18.06-.35.19-.48.12-.13.3-.2.48-.2h2.7c1.22,0,2.21-.99,2.21-2.21v-6.78c0-1.22-.99-2.21-2.21-2.21h-10.7Z"/>
      <path class="cls-2" d="M16.58,30.21c-.22,0-.45-.04-.67-.13-.7-.28-1.14-.95-1.13-1.7v-.21s-2.01,0-2.01,0c-1.95,0-3.54-1.59-3.54-3.54v-6.78c0-1.95,1.59-3.54,3.54-3.54h10.7c1.95,0,3.54,1.59,3.54,3.54,0,.37-.3.67-.67.67s-.67-.3-.67-.67c0-1.22-.99-2.21-2.21-2.21h-10.7c-1.22,0-2.21.99-2.21,2.21v6.78c0,1.22.99,2.21,2.21,2.21h2.7c.18,0,.35.07.48.2.13.13.19.3.19.48l-.02.89c0,.28.2.4.29.43.09.03.31.09.5-.12l1.51-1.67c.13-.14.31-.22.5-.22h2.21c.37,0,.67.3.67.67s-.3.67-.67.67h-1.91l-1.31,1.45c-.35.39-.83.59-1.32.59Z"/>
    </g>
    <g>
      <path class="cls-2" d="M17.44,23.62c-.26,0-.47.08-.64.24-.17.16-.25.36-.25.62s.08.47.24.63c.16.16.38.24.64.24s.46-.08.62-.24c.16-.16.24-.37.24-.63s-.08-.46-.24-.62c-.16-.16-.37-.24-.61-.24Z"/>
      <path class="cls-2" d="M19.59,18.78c-.19-.3-.46-.54-.81-.71-.35-.17-.75-.26-1.22-.26-.34,0-.69.06-1.05.17-.24.08-.47.17-.68.29-.18.1-.28.3-.28.51h0c0,.43.43.71.83.54.06-.03.12-.05.19-.08.35-.14.65-.2.9-.2.31,0,.56.07.73.21.18.14.27.33.27.56,0,.3-.16.55-.48.77-.22.15-.48.26-.78.33-.26.06-.44.3-.44.57v.78c0,.33.27.59.59.59h.14c.33,0,.59-.27.59-.59v-.53c.54-.12.98-.35,1.3-.69.32-.33.48-.75.48-1.24,0-.39-.09-.73-.28-1.04Z"/>
    </g>
    <g>
      <path class="cls-2" d="M34.38,23.21h-8.41c-.37,0-.67-.3-.67-.67s.3-.67.67-.67h8.41c.37,0,.67.3.67.67s-.3.67-.67.67Z"/>
      <path class="cls-2" d="M34.38,26.26h-8.41c-.37,0-.67-.3-.67-.67s.3-.67.67-.67h8.41c.37,0,.67.3.67.67s-.3.67-.67.67Z"/>
    </g>
  </g>
</svg>