<?xml version="1.0" encoding="UTF-8"?>
<svg id="Capa_6" data-name="Capa 6" xmlns="http://www.w3.org/2000/svg" viewBox="0 0 48 48">
  <defs>
    <style>
      .cls-1 {
        fill: #00ed7b;
      }

      .cls-1, .cls-2 {
        stroke-width: 0px;
      }

      .cls-2 {
        fill: #002b4a;
      }
    </style>
  </defs>
  <rect class="cls-1" x="6.2" y="5.53" width="35.61" height="35.61" rx="4.45" ry="4.45" transform="translate(-9.47 23.8) rotate(-45)"/>
  <g>
    <path class="cls-2" d="M21.67,29.83c-4.87,0-8.83-3.96-8.83-8.83,0-4.18,2.97-7.82,7.05-8.65.36-.08.71.16.79.52.07.36-.16.71-.52.79-3.47.71-5.99,3.8-5.99,7.35,0,4.14,3.36,7.5,7.5,7.5s7.5-3.36,7.5-7.5c0-3.35-2.25-6.32-5.47-7.22-.35-.1-.56-.47-.46-.82.1-.35.47-.56.82-.46,3.79,1.07,6.44,4.56,6.44,8.51,0,4.87-3.96,8.83-8.83,8.83Z"/>
    <path class="cls-2" d="M34.5,34.5c-.17,0-.34-.07-.47-.2l-6.95-6.95c-.26-.26-.26-.68,0-.94s.68-.26.94,0l6.95,6.95c.26.26.26.68,0,.94-.13.13-.3.2-.47.2Z"/>
  </g>
  <path class="cls-2" d="M21.73,12.78c.42,0,.79.28.9.7l.25,1c.2.78.62,1.48,1.22,2.01.43.38.79.83,1.09,1.31.02.02.03.04.04.07.54.9.83,1.93.83,3v.06c0,2.39-1.94,4.33-4.33,4.33h-2.48c-.51,0-.93-.42-.93-.93,0-.41.27-.75.63-.88v-.25h-.01c-.51,0-.93-.42-.93-.93s.42-.93.93-.93h.01v-.1h-.01c-.51,0-.93-.42-.93-.93s.42-.93.93-.93h.01v-.1h-.01c-.51,0-.93-.42-.93-.93s.42-.93.93-.93h3.46c-.64-.71-1.09-1.55-1.33-2.49l-.25-1c-.12-.5.18-1,.68-1.13.08-.02.15-.03.23-.03M21.73,11.45c-.19,0-.37.02-.55.07-.58.15-1.08.51-1.39,1.03-.31.52-.4,1.13-.25,1.71l.25,1c.07.28.16.56.26.83h-1.1c-1.25,0-2.26,1.01-2.26,2.26,0,.35.08.68.22.98-.14.3-.22.63-.22.98s.08.68.22.98c-.14.3-.22.63-.22.98,0,.5.16.95.43,1.33-.08.23-.12.48-.12.73,0,1.25,1.01,2.26,2.26,2.26h2.48c3.12,0,5.67-2.54,5.67-5.67v-.06c0-1.29-.35-2.56-1.02-3.68-.02-.04-.05-.08-.07-.11-.37-.59-.81-1.12-1.32-1.57-.4-.36-.68-.82-.81-1.34l-.25-1c-.25-1.01-1.15-1.71-2.19-1.71h0Z"/>
</svg>