<?xml version="1.0" encoding="UTF-8"?>
<svg id="Capa_6" data-name="Capa 6" xmlns="http://www.w3.org/2000/svg" viewBox="0 0 48 48">
  <defs>
    <style>
      .cls-1 {
        fill: #00caff;
      }

      .cls-1, .cls-2, .cls-3 {
        stroke-width: 0px;
      }

      .cls-2 {
        fill: #002b4a;
      }

      .cls-3 {
        fill: #d6acff;
      }
    </style>
  </defs>
  <g>
    <circle class="cls-3" cx="24" cy="24" r="20.67"/>
    <path class="cls-2" d="M24,35.74c-.13,0-.26-.04-.37-.11-.4-.27-9.82-6.61-11.24-10.29-1.49-3.85.29-8.26,3.98-9.83,2.61-1.11,5.59-.53,7.63,1.43,2.04-1.96,5.02-2.54,7.63-1.43h0c3.69,1.57,5.47,5.98,3.98,9.83-1.43,3.68-10.84,10.02-11.24,10.29-.11.08-.24.11-.37.11ZM19.09,16.29c-.74,0-1.49.15-2.2.45-3.03,1.29-4.49,4.93-3.26,8.12,1.01,2.61,7.5,7.45,10.37,9.41,2.87-1.96,9.36-6.8,10.37-9.41,1.23-3.19-.23-6.83-3.26-8.12h0c-2.29-.98-4.95-.33-6.6,1.61-.25.3-.76.3-1.01,0-1.14-1.33-2.76-2.06-4.4-2.06Z"/>
  </g>
  <path class="cls-1" d="M19.09,16.29c-.74,0-1.49.15-2.2.45-3.03,1.29-4.49,4.93-3.26,8.12,1.01,2.61,7.5,7.45,10.37,9.41,2.87-1.96,9.36-6.8,10.37-9.41,1.23-3.19-.23-6.83-3.26-8.12h0c-2.29-.98-4.95-.33-6.6,1.61-.25.3-.76.3-1.01,0-1.14-1.33-2.76-2.06-4.4-2.06Z"/>
</svg>