<svg xmlns="http://www.w3.org/2000/svg" viewBox="0 0 48 48">
  <defs>
    <style>
      .cls-1 {
        fill: #d6acff;
      }

      .cls-1, .cls-2 {
        stroke-width: 0px;
      }

      .cls-2 {
        fill: #002b4a;
      }
    </style>
  </defs>
  <rect class="cls-1" x="3.33" y="3.33" width="41.33" height="41.33" rx="5.17" ry="5.17"/>
  
<svg id="Capa_6" data-name="Capa 6" viewBox="0 0 48 48">
  <g>
    <path class="cls-2" d="M24.11,36.68c-7.09,0-12.86-5.77-12.86-12.86s5.77-12.86,12.86-12.86,12.86,5.77,12.86,12.86-5.77,12.86-12.86,12.86ZM24.11,12.3c-6.35,0-11.52,5.17-11.52,11.52s5.17,11.52,11.52,11.52,11.52-5.17,11.52-11.52-5.17-11.52-11.52-11.52Z"/>
    <path class="cls-2" d="M19.65,30.97c-.12,0-.23-.03-.33-.09-.21-.12-.33-.34-.33-.58v-12.95c0-.24.13-.46.33-.58.21-.12.46-.12.67,0l11.22,6.48c.21.12.33.34.33.58s-.13.46-.33.58l-11.22,6.48c-.1.06-.22.09-.33.09ZM20.32,18.5v10.64l9.22-5.32-9.22-5.32Z"/>
  </g>
</svg></svg>