<?xml version="1.0" encoding="UTF-8"?>
<svg id="Capa_6" data-name="Capa 6" xmlns="http://www.w3.org/2000/svg" viewBox="0 0 48 48">
  <defs>
    <style>
      .cls-1 {
        fill: #002b4a;
      }

      .cls-1, .cls-2 {
        stroke-width: 0px;
      }

      .cls-2 {
        fill: #d6acff;
      }
    </style>
  </defs>
  <rect class="cls-2" x="3.33" y="3.33" width="41.33" height="41.33" rx="5.17" ry="5.17"/>
  <g>
    <g>
      <path class="cls-1" d="M20.28,14.46c-.32,0-.61-.23-.66-.56l-.32-2.05c-.06-.36.19-.71.55-.76.36-.06.71.19.76.55l.32,2.05c.06.36-.19.71-.55.76-.04,0-.07,0-.1,0Z"/>
      <path class="cls-1" d="M20.42,23.68c-1.61,0-3.02-1.17-3.28-2.8l-1.57-9.9c-.06-.36.19-.71.55-.76.36-.06.71.19.76.55l1.57,9.9c.17,1.08,1.19,1.83,2.28,1.66,1.08-.17,1.83-1.19,1.66-2.28l-1.57-9.9c-.1-.6-.66-1.02-1.26-.92-.6.1-1.01.66-.92,1.26l.54,3.38c.06.36-.19.71-.55.76-.36.06-.71-.19-.76-.55l-.54-3.38c-.21-1.33.7-2.58,2.03-2.79,1.32-.21,2.58.7,2.79,2.03l1.57,9.9c.29,1.81-.95,3.52-2.76,3.8-.18.03-.35.04-.52.04Z"/>
    </g>
    <path class="cls-1" d="M31.51,35.2h-14.95c-1.92,0-3.49-1.56-3.49-3.49v-14.95c0-1.92,1.56-3.49,3.49-3.49h14.95c1.92,0,3.49,1.56,3.49,3.49v14.95c0,1.92-1.56,3.49-3.49,3.49ZM16.57,14.61c-1.19,0-2.15.97-2.15,2.15v14.95c0,1.19.97,2.15,2.15,2.15h14.95c1.19,0,2.15-.97,2.15-2.15v-14.95c0-1.19-.97-2.15-2.15-2.15h-14.95Z"/>
  </g>
</svg>