<?xml version="1.0" encoding="UTF-8"?>
<svg id="Capa_6" data-name="Capa 6" xmlns="http://www.w3.org/2000/svg" viewBox="0 0 48 48">
  <defs>
    <style>
      .cls-1 {
        fill: #00ed7b;
      }

      .cls-1, .cls-2 {
        stroke-width: 0px;
      }

      .cls-2 {
        fill: #002b4a;
      }
    </style>
  </defs>
  <rect class="cls-1" x="6.2" y="5.53" width="35.61" height="35.61" rx="4.45" ry="4.45" transform="translate(-9.47 23.8) rotate(-45)"/>
  <g>
    <g>
      <path class="cls-2" d="M21.67,29.83c-4.87,0-8.83-3.96-8.83-8.83s3.96-8.83,8.83-8.83,8.83,3.96,8.83,8.83-3.96,8.83-8.83,8.83ZM21.67,13.5c-4.14,0-7.5,3.36-7.5,7.5s3.36,7.5,7.5,7.5,7.5-3.36,7.5-7.5-3.36-7.5-7.5-7.5Z"/>
      <path class="cls-2" d="M34.5,34.5c-.17,0-.34-.07-.47-.2l-6.95-6.95c-.26-.26-.26-.68,0-.94s.68-.26.94,0l6.95,6.95c.26.26.26.68,0,.94-.13.13-.3.2-.47.2Z"/>
    </g>
    <path class="cls-2" d="M22.01,26.2c-.37,0-.67-.3-.67-.67v-9c0-.37.3-.67.67-.67s.67.3.67.67v9c0,.37-.3.67-.67.67Z"/>
    <path class="cls-2" d="M26.51,21.7h-9c-.37,0-.67-.3-.67-.67s.3-.67.67-.67h9c.37,0,.67.3.67.67s-.3.67-.67.67Z"/>
  </g>
</svg>