<?xml version="1.0" encoding="UTF-8"?>
<svg id="Capa_6" data-name="Capa 6" xmlns="http://www.w3.org/2000/svg" viewBox="0 0 48 48">
  <defs>
    <style>
      .cls-1 {
        fill: #00caff;
      }

      .cls-1, .cls-2 {
        stroke-width: 0px;
      }

      .cls-2 {
        fill: #002b4a;
      }
    </style>
  </defs>
  <circle class="cls-1" cx="24" cy="24" r="20.67"/>
  <g>
    <path class="cls-2" d="m36.67,33.41H11.33c-.37,0-.67-.3-.67-.67v-13.94c0-.37.3-.67.67-.67h1.79c.37,0,.67.3.67.67s-.3.67-.67.67h-1.12v12.61h24v-12.61h-1.12c-.37,0-.67-.3-.67-.67s.3-.67.67-.67h1.79c.37,0,.67.3.67.67v13.94c0,.37-.3.67-.67.67Z"/>
    <path class="cls-2" d="m24,33.27c-.37,0-.67-.3-.67-.67,0-.83-.24-1.38-.74-1.67-1.97-1.17-7.28,1.23-9.15,2.26-.21.11-.46.11-.66-.01-.2-.12-.33-.34-.33-.57v-13.71c0-.24.13-.47.35-.58.76-.41,7.5-4,10.47-2.23.63.38,1.39,1.17,1.39,2.82,0,.37-.3.67-.67.67s-.67-.3-.67-.67c0-.83-.24-1.38-.74-1.67-1.87-1.11-6.69.97-8.81,2.07v12.22c2.16-1.06,7.07-3.16,9.49-1.73.63.38,1.39,1.17,1.39,2.82,0,.37-.3.67-.67.67Z"/>
    <path class="cls-2" d="m24,33.41c-.37,0-.67-.3-.67-.67,0-1.46.5-2.49,1.49-3.05,2.46-1.41,7.25.79,9.39,1.92v-12.31c-.27-.25-.93-.78-2.13-1.28-.34-.14-.5-.53-.36-.87.14-.34.53-.5.87-.36,1.94.81,2.71,1.72,2.8,1.82.1.12.15.27.15.42v13.71c0,.24-.13.46-.34.58-.21.12-.46.12-.67,0-1.83-1.08-7.03-3.62-9.05-2.47-.55.32-.82.94-.82,1.89,0,.37-.3.67-.67.67Z"/>
    <path class="cls-2" d="m24,33.41c-.37,0-.67-.3-.67-.67v-13.71c0-6.9,8.07-8.12,8.16-8.13.19-.03.38.03.53.16.15.13.23.31.23.5v13.71c0,.33-.24.61-.57.66-.29.04-7.01,1.07-7.01,6.81,0,.37-.3.67-.67.67Zm6.91-21.04c-1.82.44-6.25,2-6.25,6.65v9.43c1.81-2.49,4.96-3.44,6.25-3.73v-12.35Z"/>
  </g>
</svg>