<?xml version="1.0" encoding="UTF-8"?>
<svg id="Capa_6" data-name="Capa 6" xmlns="http://www.w3.org/2000/svg" viewBox="0 0 48 48">
  <defs>
    <style>
      .cls-1 {
        fill: #002b4a;
      }

      .cls-1, .cls-2 {
        stroke-width: 0px;
      }

      .cls-2 {
        fill: #d6acff;
      }
    </style>
  </defs>
  <rect class="cls-2" x="3.33" y="3.33" width="41.33" height="41.33" rx="5.17" ry="5.17"/>
  <g>
    <path class="cls-1" d="M18.87,42c-.45,0-.64-.04-.74-.16l-2.02-.94c-.72-.25-1.12-1.02-.89-1.81.06-.2.15-.38.27-.54-.33-.22-.94-.66-2.15-1.55-.84-.45-.99-1.35-.69-2.02.1-.22.24-.41.43-.57-.19-.15-.39-.32-.62-.5-.21-.17-.38-.3-.44-.35-.93-.55-1.02-1.56-.64-2.28.39-.73,1.31-1.22,2.3-.71l2.53,1.37,1.52.28,1.23-.03c-.14-.06-.23-.09-.23-.1-.05-.02-.09-.04-.13-.07-.49-.34-.78-.86-.77-1.41l-.04-4c-.04-.71.45-1.4,1.16-1.61l3.66-1.08c.46-.13.91-.05,1.26.18.24-.38.65-.63,1.14-.68l2.69-.2c.48-.04.97.17,1.29.55l1.94,2.37s.08.07.12.11l4.48,5.58c.23.29.18.71-.1.94-.29.23-.71.18-.94-.1l-4.38-5.46s-.08-.06-.11-.1l-2.04-2.49s-.07-.07-.16-.07l-2.68.2s-.15.01-.15.17c0,.16.11.17.16.17l1.32.07c.66.03,1.24.45,1.49,1.06l.17.41c.32.78.29,1.66-.07,2.42-.3.62-.68,1.39-.93,1.88-.26.52-.79.87-1.37.9l-1.75.11c-.08,0-.15,0-.22-.02l-.68-.19c-.07-.02-.14-.05-.2-.1l-2.77-1.94c-.2-.14-.31-.38-.28-.63l.17-1.35c.08-.62.48-1.14,1.06-1.37.95-.38,2.02-.82,2.02-.82.05-.02.15-.06.1-.22-.05-.15-.16-.12-.21-.1l-3.64,1.08c-.12.04-.21.16-.2.29l.04,4.05c0,.09.06.19.15.27.36.15,1.72.73,2.53,1.38.22.18.3.47.21.73s-.33.45-.61.45l-3.75.11s-.09,0-.14-.01l-1.7-.31c-.07-.01-.13-.04-.2-.07l-2.6-1.41c-.29-.15-.44.04-.5.16-.06.12-.13.34.14.51.06.03.16.11.6.46.46.37,1.39,1.12,1.91,1.52l.6.26,2.82.48c.35-.03,1.98-.32,3.42-.59.35-.06.69.16.77.5.08.35-.13.7-.47.79l-2.91.79c-.07.02-.15.03-.22.02l-2.43-.17c-.07,0-.15-.02-.21-.05l-1.14-.49-.33-.06c-.12-.03-.19-.04-.56-.32l-.36-.15s-.21-.08-.3.12c-.09.21.07.28.12.31.03.02.07.04.1.06.91.67,1.92,1.4,2.23,1.61l3.14.54c.4-.09,1.86-.59,2.59-.83.31-.1.57-.19.74-.25.3-.1.64.03.79.32s.08.63-.17.84c-.02.01-1.89,1.42-1.89,1.42-.11.09-.25.13-.39.13-.34,0-1.16.1-1.65.15-.32.04-.54.06-.6.06-.06,0-.11,0-.17-.02l-2.03-.52s-.15-.03-.19.12c-.04.15.06.18.11.2l2.19,1.02c.33,0,1.23-.06,1.8-.09.77-.04,1.03-.06,1.15-.05.04-.01.11-.04.16-.06l.14-.05c1.87-.72,3.84-1.22,5.85-1.48l3.87-.5c.38-.05.7.21.75.58.05.37-.21.7-.58.75l-3.87.5c-1.9.24-3.77.72-5.55,1.41l-.11.04c-.18.07-.44.17-.72.15-.13,0-.53.03-1.01.05-.86.05-1.42.08-1.8.08ZM23.55,30.48l.46.13,1.63-.1c.11,0,.21-.07.26-.17.25-.49.63-1.26.92-1.87.2-.42.22-.9.04-1.33l-.17-.41c-.05-.13-.18-.22-.33-.23l-1.33-.07c-.28-.02-.54-.11-.75-.25-.16.24-.4.45-.7.57,0,0-1.08.45-2.04.83-.13.05-.21.17-.23.3l-.12.95,2.35,1.64Z"/>
    <path class="cls-1" d="M20.21,24.78c-.45,0-.88-.2-1.17-.55l-1.94-2.37s-.08-.07-.12-.11l-4.48-5.58c-.23-.29-.18-.71.1-.94.29-.23.71-.18.94.1l4.38,5.46s.08.06.11.1l2.04,2.49s.06.07.16.06l2.68-.2s.15-.01.15-.17c0-.16-.11-.17-.16-.17l-1.32-.07c-.66-.03-1.24-.45-1.49-1.06l-.17-.42c-.32-.78-.29-1.66.07-2.42.3-.62.68-1.39.93-1.88.26-.52.79-.87,1.37-.9l1.75-.11c.08,0,.15,0,.22.02l.68.19c.07.02.14.05.2.1l2.77,1.94c.2.14.31.38.28.63l-.17,1.35c-.08.62-.48,1.14-1.06,1.37-.95.38-2.02.82-2.02.82-.05.02-.15.06-.1.22.05.15.16.12.21.1l3.64-1.08c.12-.04.21-.16.2-.29l-.04-4.04c0-.09-.06-.19-.15-.27-.36-.15-1.72-.73-2.53-1.38-.22-.18-.3-.47-.21-.73s.33-.45.61-.45l3.75-.11s.09,0,.14.01l1.7.31c.07.01.13.04.2.07l2.6,1.41c.29.14.44-.04.5-.16.07-.12.13-.35-.16-.52t-.55-.43c-.43-.35-1.41-1.13-1.94-1.55l-.6-.26-2.82-.48c-.35.03-1.98.32-3.42.59-.35.07-.69-.16-.77-.5-.08-.35.13-.7.47-.79l2.91-.79c.07-.02.15-.03.22-.02l2.43.17c.07,0,.15.02.21.05l1.14.49.33.06c.12.03.19.04.56.32l.36.15s.21.08.3-.12c.09-.21-.07-.29-.12-.31-.03-.02-.07-.04-.1-.06-.91-.67-1.92-1.4-2.23-1.61l-3.14-.54c-.4.09-1.86.59-2.59.83-.31.1-.57.19-.74.25-.31.1-.64-.03-.79-.32-.15-.28-.08-.63.17-.84.02-.01,1.89-1.42,1.89-1.42.11-.09.25-.13.4-.13.34,0,1.16-.1,1.65-.15.32-.04.55-.06.6-.06.06,0,.11,0,.17.02l2.03.52s.15.03.19-.12c.04-.15-.06-.18-.11-.2l-2.19-1.02c-.33,0-1.23.06-1.8.09-.78.04-1.03.06-1.15.05-.05.01-.1.04-.15.06l-.14.05c-1.87.72-3.84,1.22-5.85,1.48l-3.87.5c-.37.05-.7-.21-.75-.58-.05-.37.21-.7.58-.75l3.87-.5c1.9-.24,3.77-.72,5.55-1.41l.11-.04c.18-.07.43-.17.72-.15.13,0,.54-.03,1.01-.05,1.87-.11,2.36-.13,2.55.08l2.02.94c.72.25,1.12,1.02.89,1.81-.06.2-.15.38-.28.54.33.22.94.66,2.15,1.55.84.45.99,1.35.69,2.02-.1.22-.24.41-.43.57.19.16.41.33.65.52.24.19.41.33.44.35h0c.9.58.99,1.56.61,2.26-.39.73-1.31,1.22-2.3.71l-2.53-1.37-1.52-.28-1.23.03c.14.06.23.09.23.1.05.02.09.04.13.07.49.34.78.86.77,1.41l.04,4c.04.72-.44,1.4-1.16,1.61l-3.66,1.08c-.46.13-.91.05-1.26-.18-.24.38-.65.63-1.14.68l-2.69.2s-.07,0-.11,0ZM23.99,17.39l-1.63.1c-.11,0-.21.07-.26.17-.25.49-.63,1.26-.92,1.87-.2.42-.22.9-.04,1.33l.17.42c.05.13.18.22.33.23l1.33.07c.28.02.54.11.75.25.16-.24.4-.45.7-.57,0,0,1.08-.45,2.04-.83.13-.05.22-.17.23-.3l.12-.95-2.35-1.64-.46-.13Z"/>
  </g>
</svg>