<?xml version="1.0" encoding="UTF-8"?>
<svg id="Capa_6" data-name="Capa 6" xmlns="http://www.w3.org/2000/svg" viewBox="0 0 48 48">
  <defs>
    <style>
      .cls-1 {
        fill: #002b4a;
      }

      .cls-1, .cls-2 {
        stroke-width: 0px;
      }

      .cls-2 {
        fill: #d6acff;
      }
    </style>
  </defs>
  <rect class="cls-2" x="3.33" y="3.33" width="41.33" height="41.33" rx="5.17" ry="5.17"/>
  <g>
    <path class="cls-1" d="M27.3,17.39c1.82,0,3.31,1.48,3.31,3.31v11.61c0,1.82-1.48,3.31-3.31,3.31h-11.61c-1.82,0-3.31-1.48-3.31-3.31v-11.61c0-1.82,1.48-3.31,3.31-3.31h11.61M27.3,16.06h-11.61c-2.56,0-4.64,2.08-4.64,4.64v11.61c0,2.56,2.08,4.64,4.64,4.64h11.61c2.56,0,4.64-2.08,4.64-4.64v-11.61c0-2.56-2.08-4.64-4.64-4.64h0Z"/>
    <path class="cls-1" d="M32.31,32.61c-.37,0-.67-.3-.67-.67s.3-.67.67-.67c2.19,0,3.98-1.78,3.98-3.98v-11.61c0-2.19-1.78-3.98-3.98-3.98h-11.61c-2.19,0-3.98,1.78-3.98,3.98,0,.37-.3.67-.67.67s-.67-.3-.67-.67c0-2.93,2.38-5.31,5.31-5.31h11.61c2.93,0,5.31,2.38,5.31,5.31v11.61c0,2.93-2.38,5.31-5.31,5.31Z"/>
    <path class="cls-1" d="M11.71,33.58c-.17,0-.34-.07-.47-.2-.26-.26-.26-.68,0-.94l5.2-5.2c.12-.12.29-.2.47-.2h0c.18,0,.35.07.47.2l2.13,2.13,6.91-6.91c.26-.26.68-.26.94,0l4.02,4.02c.26.26.26.68,0,.94s-.68.26-.94,0l-3.55-3.55-6.91,6.91c-.12.12-.29.2-.47.2h0c-.18,0-.35-.07-.47-.2l-2.13-2.13-4.73,4.73c-.13.13-.3.2-.47.2Z"/>
    <path class="cls-1" d="M17.43,24.27c-1.65,0-2.99-1.34-2.99-2.99s1.34-2.99,2.99-2.99,2.99,1.34,2.99,2.99-1.34,2.99-2.99,2.99ZM17.43,19.63c-.91,0-1.65.74-1.65,1.65s.74,1.65,1.65,1.65,1.65-.74,1.65-1.65-.74-1.65-1.65-1.65Z"/>
  </g>
</svg>