<?xml version="1.0" encoding="UTF-8"?>
<svg id="Capa_6" data-name="Capa 6" xmlns="http://www.w3.org/2000/svg" viewBox="0 0 48 48">
  <defs>
    <style>
      .cls-1 {
        fill: #002b4a;
      }

      .cls-1, .cls-2 {
        stroke-width: 0px;
      }

      .cls-2 {
        fill: #d6acff;
      }
    </style>
  </defs>
  <rect class="cls-2" x="3.33" y="3.33" width="41.33" height="41.33" rx="5.17" ry="5.17"/>
  <g>
    <path class="cls-1" d="M21.72,31.58c-2.75,0-4.98-2.24-4.98-4.98s2.24-4.98,4.98-4.98,4.98,2.24,4.98,4.98-2.24,4.98-4.98,4.98ZM21.72,22.95c-2.01,0-3.65,1.64-3.65,3.65s1.64,3.65,3.65,3.65,3.65-1.64,3.65-3.65-1.64-3.65-3.65-3.65Z"/>
    <path class="cls-1" d="M14.63,19.86c-2.24,0-4.06-1.82-4.06-4.06s1.82-4.06,4.06-4.06,4.06,1.82,4.06,4.06-1.82,4.06-4.06,4.06ZM14.63,13.08c-1.5,0-2.73,1.22-2.73,2.73s1.22,2.73,2.73,2.73,2.73-1.22,2.73-2.73-1.22-2.73-2.73-2.73Z"/>
    <path class="cls-1" d="M14.32,34.67c-1.05,0-1.9-.85-1.9-1.9s.85-1.9,1.9-1.9,1.9.85,1.9,1.9-.85,1.9-1.9,1.9ZM14.32,32.2c-.31,0-.57.25-.57.57s.25.57.57.57.57-.25.57-.57-.25-.57-.57-.57Z"/>
    <path class="cls-1" d="M26.04,35.9c-.71,0-1.28-.58-1.28-1.28s.58-1.28,1.28-1.28,1.28.58,1.28,1.28-.58,1.28-1.28,1.28ZM26.04,34.57s-.05.02-.05.05c0,.05.1.05.1,0,0-.03-.02-.05-.05-.05Z"/>
    <path class="cls-1" d="M34.98,31.58c-1.56,0-2.83-1.27-2.83-2.83s1.27-2.83,2.83-2.83,2.82,1.27,2.82,2.83-1.27,2.83-2.82,2.83ZM34.98,27.27c-.82,0-1.49.67-1.49,1.49s.67,1.49,1.49,1.49,1.49-.67,1.49-1.49-.67-1.49-1.49-1.49Z"/>
    <path class="cls-1" d="M29.12,20.48c-1.73,0-3.13-1.41-3.13-3.13s1.41-3.13,3.13-3.13,3.13,1.41,3.13,3.13-1.41,3.13-3.13,3.13ZM29.12,15.55c-.99,0-1.8.81-1.8,1.8s.81,1.8,1.8,1.8,1.8-.81,1.8-1.8-.81-1.8-1.8-1.8Z"/>
    <path class="cls-1" d="M19.2,23.75c-.21,0-.42-.1-.55-.29l-2.97-4.28c-.21-.3-.14-.72.17-.93.3-.21.72-.14.93.17l2.97,4.28c.21.3.14.72-.17.93-.12.08-.25.12-.38.12Z"/>
    <path class="cls-1" d="M24.42,23.9c-.15,0-.29-.05-.42-.15-.29-.23-.33-.65-.1-.94l3.17-3.96c.23-.29.65-.33.94-.1.29.23.33.65.1.94l-3.17,3.96c-.13.16-.33.25-.52.25Z"/>
    <path class="cls-1" d="M15.18,32.72c-.19,0-.38-.08-.51-.24-.24-.28-.2-.7.09-.94l3.23-2.69c.28-.24.7-.2.94.09.24.28.2.7-.09.94l-3.23,2.69c-.12.1-.28.15-.43.15Z"/>
    <path class="cls-1" d="M25.75,34.74c-.24,0-.47-.13-.59-.35l-1.98-3.68c-.17-.32-.05-.73.27-.9.32-.17.73-.05.9.27l1.98,3.68c.17.32.05.73-.27.9-.1.05-.21.08-.32.08Z"/>
    <path class="cls-1" d="M32.85,29.29s-.08,0-.12-.01l-6.81-1.24c-.36-.07-.6-.41-.54-.78.07-.36.42-.6.77-.54l6.81,1.24c.36.07.6.41.54.78-.06.32-.34.55-.65.55Z"/>
  </g>
</svg>