<?xml version="1.0" encoding="UTF-8"?>
<svg id="Capa_6" data-name="Capa 6" xmlns="http://www.w3.org/2000/svg" viewBox="0 0 48 48">
  <defs>
    <style>
      .cls-1 {
        fill: #002b4a;
      }

      .cls-1, .cls-2 {
        stroke-width: 0px;
      }

      .cls-2 {
        fill: #d6acff;
      }
    </style>
  </defs>
  <rect class="cls-2" x="3.33" y="3.33" width="41.33" height="41.33" rx="5.17" ry="5.17"/>
  <g>
    <path class="cls-1" d="M34.17,37.03h-14.37c-1.47,0-2.67-1.2-2.67-2.67v-.4c0-.37.3-.67.67-.67s.67.3.67.67v.4c0,.74.6,1.34,1.34,1.34h14.37c.74,0,1.34-.6,1.34-1.34V13.29c0-.74-.6-1.34-1.34-1.34h-14.37c-.74,0-1.34.6-1.34,1.34v5.44c0,.37-.3.67-.67.67s-.67-.3-.67-.67v-5.44c0-1.47,1.2-2.67,2.67-2.67h14.37c1.47,0,2.67,1.2,2.67,2.67v21.06c0,1.47-1.2,2.67-2.67,2.67Z"/>
    <g>
      <path class="cls-1" d="M33.17,17.05h-12.37c-.37,0-.67-.3-.67-.67s.3-.67.67-.67h12.37c.37,0,.67.3.67.67s-.3.67-.67.67Z"/>
      <path class="cls-1" d="M33.17,22.01h-11.67c-.37,0-.67-.3-.67-.67s.3-.67.67-.67h11.67c.37,0,.67.3.67.67s-.3.67-.67.67Z"/>
      <path class="cls-1" d="M33.17,26.97h-8.19c-.37,0-.67-.3-.67-.67s.3-.67.67-.67h8.19c.37,0,.67.3.67.67s-.3.67-.67.67Z"/>
      <path class="cls-1" d="M33.17,31.93h-8.19c-.37,0-.67-.3-.67-.67s.3-.67.67-.67h8.19c.37,0,.67.3.67.67s-.3.67-.67.67Z"/>
    </g>
    <path class="cls-1" d="M16.29,19.25c.46,0,.87.31.99.77l.28,1.1c.21.86.68,1.62,1.34,2.21.47.42.87.91,1.2,1.44.02.02.03.05.05.07.59.99.91,2.12.91,3.29v.06c0,2.63-2.14,4.76-4.76,4.76h-2.72c-.56,0-1.02-.46-1.02-1.02,0-.45.29-.83.7-.96v-.28h-.01c-.56,0-1.02-.46-1.02-1.02s.46-1.02,1.02-1.02h.01v-.11h-.01c-.56,0-1.02-.46-1.02-1.02s.46-1.02,1.02-1.02h.01v-.11h-.01c-.56,0-1.02-.46-1.02-1.02s.46-1.02,1.02-1.02h3.8c-.7-.78-1.2-1.71-1.46-2.73l-.28-1.1c-.14-.55.2-1.1.74-1.24.08-.02.17-.03.25-.03M16.29,17.92c-.19,0-.39.02-.58.07-.61.15-1.12.53-1.44,1.07-.32.54-.42,1.17-.26,1.78l.28,1.1c.09.37.21.73.36,1.08h-1.41c-1.3,0-2.35,1.06-2.35,2.35,0,.39.09.75.26,1.08-.17.32-.26.69-.26,1.08s.09.75.26,1.08c-.17.32-.26.69-.26,1.08,0,.54.18,1.04.49,1.44-.1.26-.15.54-.15.83,0,1.3,1.06,2.35,2.35,2.35h2.72c3.36,0,6.1-2.73,6.1-6.1v-.06c0-1.4-.38-2.77-1.1-3.98-.03-.04-.05-.08-.08-.12-.4-.64-.88-1.21-1.42-1.7-.46-.41-.78-.94-.93-1.54l-.28-1.1c-.26-1.05-1.2-1.78-2.28-1.78h0Z"/>
  </g>
</svg>