<?xml version="1.0" encoding="UTF-8"?>
<svg id="Capa_6" data-name="Capa 6" xmlns="http://www.w3.org/2000/svg" viewBox="0 0 48 48">
  <defs>
    <style>
      .cls-1 {
        fill: #002b4a;
      }

      .cls-1, .cls-2 {
        stroke-width: 0px;
      }

      .cls-2 {
        fill: #d6acff;
      }
    </style>
  </defs>
  <rect class="cls-2" x="3.33" y="3.33" width="41.33" height="41.33" rx="5.17" ry="5.17"/>
  <g>
    <g>
      <path class="cls-1" d="M25.79,37.29h-7.36c-3.07,0-5.57-2.5-5.57-5.57s2.5-5.57,5.57-5.57h1.51c.36,0,.65.29.65.65s-.29.65-.65.65h-1.51c-2.36,0-4.28,1.92-4.28,4.28s1.92,4.28,4.28,4.28h7.36c.36,0,.65.29.65.65s-.29.65-.65.65Z"/>
      <path class="cls-1" d="M29.56,27.43h-3.49c-.36,0-.65-.29-.65-.65s.29-.65.65-.65h3.49c2.36,0,4.28-1.92,4.28-4.28s-1.92-4.28-4.28-4.28h-9.52c-.36,0-.65-.29-.65-.65s.29-.65.65-.65h9.52c3.07,0,5.57,2.5,5.57,5.57s-2.5,5.57-5.57,5.57Z"/>
      <path class="cls-1" d="M22.47,38.94c-.24,0-.47-.13-.58-.36-.16-.32-.03-.71.29-.87l2.17-1.08-2.17-1.08c-.32-.16-.45-.55-.29-.87.16-.32.55-.45.87-.29l3.32,1.66c.22.11.36.33.36.58s-.14.47-.36.58l-3.32,1.66c-.09.05-.19.07-.29.07Z"/>
    </g>
    <g>
      <path class="cls-1" d="M29.05,38.1c-.19,0-.37-.08-.49-.22-.33-.39-3.24-3.82-3.24-5.71,0-2.06,1.67-3.73,3.73-3.73s3.73,1.67,3.73,3.73c0,1.89-2.91,5.32-3.24,5.71-.12.14-.3.22-.49.22ZM29.05,29.73c-1.34,0-2.44,1.09-2.44,2.44,0,.92,1.34,2.9,2.44,4.28,1.1-1.37,2.44-3.35,2.44-4.28,0-1.34-1.09-2.44-2.44-2.44Z"/>
      <path class="cls-1" d="M28.97,33.6c-.71,0-1.29-.58-1.29-1.29s.58-1.29,1.29-1.29,1.29.58,1.29,1.29-.58,1.29-1.29,1.29ZM28.97,32.31h0,0ZM28.97,32.31h0,0ZM28.97,32.31h0,0ZM28.97,32.31h0,0ZM28.97,32.31h0,0ZM28.97,32.31h0,0ZM28.97,32.31h0,0ZM28.97,32.31h0,0Z"/>
    </g>
    <g>
      <path class="cls-1" d="M22.92,28.41c-.19,0-.37-.08-.49-.22-.33-.39-3.24-3.82-3.24-5.71,0-2.06,1.67-3.73,3.73-3.73s3.73,1.67,3.73,3.73c0,1.89-2.91,5.32-3.24,5.71-.12.14-.3.22-.49.22ZM22.92,20.04c-1.34,0-2.44,1.09-2.44,2.44,0,.92,1.34,2.9,2.44,4.28,1.1-1.37,2.44-3.35,2.44-4.28,0-1.34-1.09-2.44-2.44-2.44Z"/>
      <path class="cls-1" d="M22.84,23.91c-.71,0-1.29-.58-1.29-1.29s.58-1.29,1.29-1.29,1.29.58,1.29,1.29-.58,1.29-1.29,1.29ZM22.84,22.62h0,0ZM22.84,22.62h0,0ZM22.84,22.62h0,0ZM22.84,22.62h0,0ZM22.84,22.62h0,0ZM22.84,22.62h0,0ZM22.84,22.62h0,0ZM22.84,22.62h0,0Z"/>
    </g>
    <g>
      <path class="cls-1" d="M16.78,18.73c-.19,0-.37-.08-.49-.22-.33-.39-3.24-3.82-3.24-5.71,0-2.06,1.67-3.73,3.73-3.73s3.73,1.67,3.73,3.73c0,1.89-2.91,5.32-3.24,5.71-.12.14-.3.22-.49.22ZM16.78,10.35c-1.34,0-2.44,1.09-2.44,2.44,0,.92,1.34,2.9,2.44,4.28,1.1-1.37,2.44-3.35,2.44-4.28,0-1.34-1.09-2.44-2.44-2.44Z"/>
      <path class="cls-1" d="M16.7,14.23c-.71,0-1.29-.58-1.29-1.29s.58-1.29,1.29-1.29,1.29.58,1.29,1.29-.58,1.29-1.29,1.29ZM16.7,12.94h0,0ZM16.7,12.94h0,0ZM16.7,12.94h0,0ZM16.7,12.94h0,0ZM16.7,12.93h0,0ZM16.7,12.93h0,0ZM16.7,12.93h0,0ZM16.7,12.93h0,0Z"/>
    </g>
  </g>
</svg>