<?xml version="1.0" encoding="UTF-8"?>
<svg id="Capa_6" data-name="Capa 6" xmlns="http://www.w3.org/2000/svg" viewBox="0 0 48 48">
  <defs>
    <style>
      .cls-1 {
        fill: #00caff;
      }

      .cls-1, .cls-2 {
        stroke-width: 0px;
      }

      .cls-2 {
        fill: #002b4a;
      }
    </style>
  </defs>
  <circle class="cls-1" cx="24" cy="24" r="20.67"/>
  <g>
    <path class="cls-2" d="M25.85,35.56h-7.6c-3.17,0-5.75-2.58-5.75-5.75s2.58-5.75,5.75-5.75h2.9c.37,0,.67.3.67.67s-.3.67-.67.67h-2.9c-2.44,0-4.42,1.98-4.42,4.42s1.98,4.42,4.42,4.42h7.6c.37,0,.67.3.67.67s-.3.67-.67.67Z"/>
    <path class="cls-2" d="M29.74,25.39h-1.61c-.37,0-.67-.3-.67-.67s.3-.67.67-.67h1.61c2.44,0,4.42-1.98,4.42-4.42s-1.98-4.42-4.42-4.42h-9.82c-.37,0-.67-.3-.67-.67s.3-.67.67-.67h9.82c3.17,0,5.75,2.58,5.75,5.75s-2.58,5.75-5.75,5.75Z"/>
    <g>
      <path class="cls-2" d="M16.6,17.81c-2.26,0-4.1-1.84-4.1-4.1s1.84-4.1,4.1-4.1c.37,0,.67.3.67.67s-.3.67-.67.67c-1.52,0-2.76,1.24-2.76,2.76s1.24,2.76,2.76,2.76,2.76-1.24,2.76-2.76c0-.37.3-.67.67-.67s.67.3.67.67c0,2.26-1.84,4.1-4.1,4.1Z"/>
      <path class="cls-2" d="M16.6,15.12c-.21,0-.4-.1-.53-.26l-.8-1.05c-.22-.29-.17-.71.13-.93.29-.22.71-.17.93.13l.26.35,2.08-2.81c.22-.29.64-.36.93-.14.3.22.36.64.14.93l-2.61,3.52c-.12.17-.32.27-.53.27h0Z"/>
    </g>
    <g>
      <path class="cls-2" d="M24.5,28.1c-2.26,0-4.1-1.84-4.1-4.1s1.84-4.1,4.1-4.1c.37,0,.67.3.67.67s-.3.67-.67.67c-1.52,0-2.76,1.24-2.76,2.76s1.24,2.76,2.76,2.76,2.76-1.24,2.76-2.76c0-.37.3-.67.67-.67s.67.3.67.67c0,2.26-1.84,4.1-4.1,4.1Z"/>
      <path class="cls-2" d="M24.5,25.4c-.21,0-.4-.1-.53-.26l-.8-1.05c-.22-.29-.17-.71.13-.93.29-.22.71-.17.93.13l.26.35,2.08-2.81c.22-.3.64-.36.93-.14.3.22.36.64.14.93l-2.61,3.52c-.12.17-.32.27-.53.27h0Z"/>
    </g>
    <g>
      <path class="cls-2" d="M31.36,38.38c-2.26,0-4.1-1.84-4.1-4.1s1.84-4.1,4.1-4.1c.37,0,.67.3.67.67s-.3.67-.67.67c-1.52,0-2.76,1.24-2.76,2.76s1.24,2.76,2.76,2.76,2.76-1.24,2.76-2.76c0-.37.3-.67.67-.67s.67.3.67.67c0,2.26-1.84,4.1-4.1,4.1Z"/>
      <path class="cls-2" d="M31.36,35.69c-.21,0-.4-.1-.53-.26l-.8-1.05c-.22-.29-.17-.71.13-.93.29-.22.71-.16.93.13l.26.35,2.08-2.81c.22-.3.64-.36.93-.14.3.22.36.64.14.93l-2.61,3.52c-.12.17-.32.27-.53.27h0Z"/>
    </g>
    <path class="cls-2" d="M22.42,37.27c-.24,0-.48-.13-.6-.37-.16-.33-.03-.73.3-.89l2.24-1.12-2.24-1.12c-.33-.16-.46-.57-.3-.89.17-.33.57-.46.89-.3l3.43,1.71c.23.11.37.34.37.6s-.14.48-.37.6l-3.43,1.71c-.1.05-.2.07-.3.07Z"/>
  </g>
</svg>