<?xml version="1.0" encoding="UTF-8"?>
<svg id="Capa_6" data-name="Capa 6" xmlns="http://www.w3.org/2000/svg" viewBox="0 0 48 48">
  <defs>
    <style>
      .cls-1 {
        fill: #00ed7b;
      }

      .cls-1, .cls-2 {
        stroke-width: 0px;
      }

      .cls-2 {
        fill: #002b4a;
      }
    </style>
  </defs>
  <rect class="cls-1" x="6.2" y="6.2" width="35.61" height="35.61" rx="4.45" ry="4.45" transform="translate(-9.94 24) rotate(-45)"/>
  <g>
    <path class="cls-2" d="M24,37.04c-7.19,0-13.04-5.85-13.04-13.04s5.85-13.04,13.04-13.04,13.04,5.85,13.04,13.04-5.85,13.04-13.04,13.04ZM24,12.29c-6.46,0-11.71,5.25-11.71,11.71s5.25,11.71,11.71,11.71,11.71-5.25,11.71-11.71-5.25-11.71-11.71-11.71Z"/>
    <path class="cls-2" d="M29.59,24.62h-5.55c-.37,0-.67-.3-.67-.67v-9.44c0-.37.3-.67.67-.67s.67.3.67.67v8.78h4.89c.37,0,.67.3.67.67s-.3.67-.67.67Z"/>
  </g>
</svg>