<?xml version="1.0" encoding="UTF-8"?>
<svg id="Capa_6" data-name="Capa 6" xmlns="http://www.w3.org/2000/svg" viewBox="0 0 48 48">
  <defs>
    <style>
      .cls-1 {
        fill: #d6acff;
      }

      .cls-1, .cls-2 {
        stroke-width: 0px;
      }

      .cls-2 {
        fill: #002b4a;
      }
    </style>
  </defs>
  <rect class="cls-1" x="3" y="3" width="42" height="42" rx="5.25" ry="5.25"/>
  <g>
    <path class="cls-2" d="M15.82,22.61c-1.36,0-2.46-1.1-2.46-2.46s1.1-2.46,2.46-2.46,2.46,1.1,2.46,2.46-1.1,2.46-2.46,2.46ZM15.82,19c-.63,0-1.15.51-1.15,1.15s.51,1.15,1.15,1.15,1.15-.51,1.15-1.15-.51-1.15-1.15-1.15Z"/>
    <path class="cls-2" d="M14.02,36.64c-.09,0-.17-.02-.26-.05-.33-.14-.49-.53-.34-.86l8.74-20.29c.16-.37.03-.81-.3-1.03l-4.38-2.99c-.3-.2-.38-.61-.17-.91.2-.3.61-.38.91-.17l4.38,2.99c.85.58,1.17,1.69.77,2.64l-8.74,20.29c-.11.25-.35.4-.6.4Z"/>
    <path class="cls-2" d="M16.32,37.42c-.13,0-.27-.04-.38-.12-.29-.21-.36-.62-.15-.92l9.35-12.95c.21-.29.62-.36.92-.15.29.21.36.62.15.92l-9.35,12.95c-.13.18-.33.27-.53.27Z"/>
    <path class="cls-2" d="M33.98,37.78c-.34,0-.62-.26-.65-.6l-.76-8.44c-.03-.38-.25-.7-.59-.88l-11.74-6.16c-.32-.17-.44-.56-.28-.89.17-.32.56-.44.89-.28l11.74,6.16c.73.38,1.21,1.1,1.29,1.92l.76,8.44c.03.36-.23.68-.59.71-.02,0-.04,0-.06,0Z"/>
  </g>
</svg>