<?xml version="1.0" encoding="UTF-8"?>
<svg id="Capa_6" data-name="Capa 6" xmlns="http://www.w3.org/2000/svg" viewBox="0 0 48 48">
  <defs>
    <style>
      .cls-1 {
        fill: #00ed7b;
      }

      .cls-1, .cls-2 {
        stroke-width: 0px;
      }

      .cls-2 {
        fill: #002b4a;
      }
    </style>
  </defs>
  <rect class="cls-1" x="6.2" y="5.53" width="35.61" height="35.61" rx="4.45" ry="4.45" transform="translate(-9.47 23.8) rotate(-45)"/>
  <g>
    <path class="cls-2" d="M24,37.38c-.13,0-.26-.04-.37-.11-.46-.31-11.38-7.66-13.02-11.9-1.71-4.42.34-9.48,4.57-11.28,3.02-1.28,6.48-.59,8.82,1.71,2.35-2.3,5.8-3,8.82-1.71h0c4.23,1.8,6.28,6.86,4.57,11.28-1.64,4.24-12.56,11.59-13.02,11.9-.11.08-.24.11-.37.11ZM18.3,14.79c-.88,0-1.76.17-2.6.53-3.58,1.52-5.3,5.81-3.85,9.57,1.19,3.08,8.84,8.77,12.15,11.02,3.31-2.25,10.96-7.95,12.15-11.02,1.46-3.76-.27-8.05-3.85-9.57h0c-2.71-1.15-5.84-.39-7.8,1.9-.13.15-.31.23-.51.23h0c-.2,0-.38-.09-.51-.23-1.35-1.58-3.25-2.43-5.2-2.43Z"/>
    <path class="cls-2" d="M33.97,20.32s-.04,0-.06,0c-.1-.02-.19-.08-.24-.17l-1.01-1.81-1.47.52-.36.74c-.03.06-.08.11-.14.15l-.84.45c-.12.06-.26.05-.37-.03l-.68-.55c-.08-.06-.12-.16-.12-.26v-1.43c0-.18.15-.33.33-.33h1.06l.51-.25v-1.96c0-.09.04-.17.1-.24.06-.06.16-.1.24-.1l1.62.02.33-.33c.13-.13.34-.13.47,0s.13.34,0,.47l-.43.43c-.06.06-.13.1-.24.1l-1.42-.02v1.83c0,.13-.07.24-.18.3l-.76.38s-.1.04-.15.04h-.81v.94l.39.31.55-.3.37-.77c.04-.08.11-.14.19-.17l1.87-.66c.15-.05.32.01.4.15l.94,1.69.47-.42-1.22-1.85c-.07-.11-.07-.26,0-.37.08-.11.21-.17.34-.14l.76.16s.09.03.12.05l1.03.72.83.39c.17.08.24.28.16.44-.08.17-.28.24-.44.16l-.88-.42-.86-.6.87,1.33c.09.14.07.32-.06.43l-.99.89c-.06.06-.14.09-.22.09Z"/>
    <path class="cls-2" d="M29.02,33.56c-.18,0-.32-.14-.33-.31l-.07-1.15-4.2-1.38c-.14-.04-.23-.17-.23-.31l-.03-4.26c0-.13.07-.25.19-.3l2.48-1.17.49-2.13c.02-.08.07-.15.13-.2l2.25-1.6c.1-.07.22-.08.32-.03l1.85.8c.13.06.21.19.2.33l-.05.58,1.8.34.18-.46c.05-.13.18-.22.32-.21l3,.12c.18,0,.33.16.32.35,0,.18-.13.34-.35.32l-2.76-.11-.19.5c-.06.15-.21.24-.37.21l-2.37-.45c-.17-.03-.28-.18-.27-.35l.05-.64-1.46-.63-1.99,1.42-.5,2.17c-.02.1-.09.18-.18.23l-2.43,1.15.03,3.81,4.19,1.37c.13.04.22.16.23.3l.08,1.38c.01.18-.13.34-.31.35,0,0-.01,0-.02,0Z"/>
    <path class="cls-2" d="M20.67,34.42s-.05,0-.08,0c-.18-.04-.29-.22-.25-.4l.62-2.56-2.17-1.35s-.08-.06-.11-.11l-1.13-1.85-.78.48c-.07.05-.16.06-.25.04-.09-.02-.16-.07-.21-.15l-.65-1.07c-.1-.16-.05-.36.11-.46l.53-.33-.31-.5-1.07.65c-.15.1-.36.05-.46-.11l-1.63-2.67c-.08-.13-.06-.29.04-.4l1.49-1.65c.12-.13.31-.15.44-.04l1.14.84-.14-2.03c0-.14.07-.27.2-.33l4.36-1.85-1.43-2.1-1.02,1.35c-.08.11-.21.15-.34.12l-1.6-.38c-.14-.03-.24-.15-.25-.3l-.21-2.67c-.01-.18.12-.34.31-.36.18,0,.34.12.36.31l.19,2.43,1.15.28,1.17-1.55c.07-.09.15-.14.27-.13.11,0,.21.06.27.15l1.93,2.82c.06.08.07.19.04.28-.03.1-.1.17-.19.21l-4.51,1.92.17,2.51c0,.13-.06.25-.17.31-.11.06-.25.05-.36-.02l-1.47-1.08-1.13,1.24,1.33,2.17,1.07-.65c.16-.09.36-.05.46.11l.65,1.07c.05.08.06.17.04.25s-.07.16-.15.21l-.53.33.31.5.78-.48c.15-.09.36-.05.46.11l1.27,2.07,2.31,1.44c.12.08.18.22.15.36l-.67,2.79c-.04.15-.17.26-.32.26Z"/>
    <path class="cls-2" d="M16.78,28.79h-2.66c-.18,0-.33-.15-.33-.33s.15-.33.33-.33h2.66c.18,0,.33.15.33.33s-.15.33-.33.33Z"/>
    <path class="cls-2" d="M15.01,27.02c-.05,0-.1-.01-.15-.04l-3.54-1.77c-.16-.08-.23-.28-.15-.45.08-.16.28-.23.45-.15l3.54,1.77c.16.08.23.28.15.45-.06.12-.18.18-.3.18Z"/>
  </g>
</svg>