<?xml version="1.0" encoding="UTF-8"?>
<svg id="Capa_6" data-name="Capa 6" xmlns="http://www.w3.org/2000/svg" viewBox="0 0 48 48">
  <defs>
    <style>
      .cls-1 {
        fill: #00caff;
      }

      .cls-1, .cls-2 {
        stroke-width: 0px;
      }

      .cls-2 {
        fill: #002b4a;
      }
    </style>
  </defs>
  <circle class="cls-1" cx="24" cy="24" r="20.67"/>
  <g>
    <path class="cls-2" d="M14.84,23.75c-1.71,0-3.11-1.39-3.11-3.11s1.4-3.11,3.11-3.11,3.11,1.39,3.11,3.11-1.4,3.11-3.11,3.11ZM14.84,18.87c-.98,0-1.78.8-1.78,1.78s.8,1.78,1.78,1.78,1.78-.8,1.78-1.78-.8-1.78-1.78-1.78Z"/>
    <path class="cls-2" d="M19.42,31.13c-.37,0-.67-.3-.67-.67,0-2.16-1.76-3.91-3.91-3.91s-3.91,1.76-3.91,3.91c0,.37-.3.67-.67.67s-.67-.3-.67-.67c0-2.89,2.35-5.25,5.25-5.25s5.25,2.35,5.25,5.25c0,.37-.3.67-.67.67Z"/>
    <path class="cls-2" d="M28.58,31.13c-.37,0-.67-.3-.67-.67,0-2.16-1.76-3.91-3.91-3.91s-3.91,1.76-3.91,3.91c0,.37-.3.67-.67.67s-.67-.3-.67-.67c0-2.89,2.35-5.25,5.25-5.25s5.25,2.35,5.25,5.25c0,.37-.3.67-.67.67Z"/>
    <path class="cls-2" d="M37.74,31.13c-.37,0-.67-.3-.67-.67,0-2.16-1.76-3.91-3.91-3.91s-3.91,1.76-3.91,3.91c0,.37-.3.67-.67.67s-.67-.3-.67-.67c0-2.89,2.35-5.25,5.25-5.25s5.25,2.35,5.25,5.25c0,.37-.3.67-.67.67Z"/>
    <path class="cls-2" d="M26.85,23.89h-5.15c-.37,0-.67-.3-.67-.67v-5.15c0-.37.3-.67.67-.67h5.15c.37,0,.67.3.67.67v5.15c0,.37-.3.67-.67.67ZM22.37,22.55h3.82v-3.82h-3.82v3.82Z"/>
    <path class="cls-2" d="M33.51,24.42c-.21,0-.4-.1-.53-.26l-2.38-3.11c-.18-.24-.18-.57,0-.81l2.38-3.11c.25-.33.81-.33,1.06,0l2.38,3.11c.18.24.18.57,0,.81l-2.38,3.11c-.13.17-.32.26-.53.26ZM31.97,20.64l1.54,2.01,1.54-2.01-1.54-2.01-1.54,2.01Z"/>
  </g>
</svg>