<?xml version="1.0" encoding="UTF-8"?>
<svg id="Capa_6" data-name="Capa 6" xmlns="http://www.w3.org/2000/svg" viewBox="0 0 48 48">
  <defs>
    <style>
      .cls-1 {
        fill: #00ed7b;
      }

      .cls-1, .cls-2 {
        stroke-width: 0px;
      }

      .cls-2 {
        fill: #002b4a;
      }
    </style>
  </defs>
  <rect class="cls-1" x="6.2" y="5.53" width="35.61" height="35.61" rx="4.45" ry="4.45" transform="translate(-9.47 23.8) rotate(-45)"/>
  <g>
    <path class="cls-2" d="M34.06,18.59c-.17,0-.34-.07-.47-.2l-5.22-5.29-5.22,5.29c-.26.26-.68.26-.94,0-.26-.26-.26-.68,0-.94l5.7-5.77c.25-.25.7-.25.95,0l5.7,5.77c.26.26.26.68,0,.94-.13.13-.3.19-.47.19Z"/>
    <path class="cls-2" d="M13.94,32.93c-.37,0-.67-.3-.67-.67v-6.71c0-1.61,1.31-2.92,2.92-2.92h9.91c.87,0,1.58-.71,1.58-1.58v-7.84c0-.37.3-.67.67-.67s.67.3.67.67v7.84c0,1.61-1.31,2.92-2.92,2.92h-9.91c-.87,0-1.58.71-1.58,1.58v6.71c0,.37-.3.67-.67.67Z"/>
  </g>
</svg>