<?xml version="1.0" encoding="UTF-8"?>
<svg id="Capa_6" data-name="Capa 6" xmlns="http://www.w3.org/2000/svg" viewBox="0 0 48 48">
  <defs>
    <style>
      .cls-1 {
        fill: #002b4a;
      }

      .cls-1, .cls-2 {
        stroke-width: 0px;
      }

      .cls-2 {
        fill: #d6acff;
      }
    </style>
  </defs>
  <rect class="cls-2" x="3.33" y="3.33" width="41.33" height="41.33" rx="5.17" ry="5.17"/>
  <g>
    <g>
      <g>
        <path class="cls-1" d="M30.91,29.01c-.47,0-.92-.2-1.26-.56l-1.19-1.32h-3.91c-1.83,0-3.32-1.49-3.32-3.32v-6.25c0-1.83,1.49-3.32,3.32-3.32h9.87c1.83,0,3.32,1.49,3.32,3.32v6.25c0,1.83-1.49,3.32-3.32,3.32h-1.81v.14c.02.72-.4,1.35-1.07,1.62-.21.08-.42.12-.63.12ZM24.56,15.57c-1.09,0-1.98.89-1.98,1.98v6.25c0,1.09.89,1.98,1.98,1.98h4.21c.19,0,.37.08.5.22l1.39,1.54c.15.17.34.12.41.1.07-.03.24-.12.23-.35l-.02-.82c0-.18.06-.35.19-.48.13-.13.3-.2.48-.2h2.49c1.09,0,1.98-.89,1.98-1.98v-6.25c0-1.09-.89-1.98-1.98-1.98h-9.87Z"/>
        <path class="cls-1" d="M17.24,26.12c-.21,0-.43-.04-.63-.12-.67-.27-1.09-.9-1.07-1.62v-.14s-1.8,0-1.8,0c-1.83,0-3.32-1.49-3.32-3.32v-6.25c0-1.83,1.49-3.32,3.32-3.32h9.87c1.83,0,3.32,1.49,3.32,3.32,0,.37-.3.67-.67.67s-.67-.3-.67-.67c0-1.09-.89-1.98-1.98-1.98h-9.87c-1.09,0-1.98.89-1.98,1.98v6.25c0,1.09.89,1.98,1.98,1.98h2.49c.18,0,.35.07.48.2.12.13.19.3.19.48l-.02.82c0,.23.16.32.23.35.07.03.25.08.41-.1l1.39-1.54c.13-.14.31-.22.5-.22h2.04c.37,0,.67.3.67.67s-.3.67-.67.67h-1.74l-1.19,1.32c-.33.37-.79.56-1.26.56Z"/>
      </g>
      <g>
        <path class="cls-1" d="M33.72,31.61H14.44c-.37,0-.67-.3-.67-.67s.3-.67.67-.67h19.28c.37,0,.67.3.67.67s-.3.67-.67.67Z"/>
        <path class="cls-1" d="M33.72,36.3H14.44c-.37,0-.67-.3-.67-.67s.3-.67.67-.67h19.28c.37,0,.67.3.67.67s-.3.67-.67.67Z"/>
      </g>
    </g>
    <path class="cls-1" d="M27.81,22.55l2.21-3.34h-1.62c-.31,0-.56-.25-.56-.56h0c0-.31.25-.56.56-.56h3.21c.15,0,.28.13.28.28h0c0,.06-.02.11-.05.16l-2.25,3.34h1.74c.31,0,.56.25.56.56h0c0,.31-.25.56-.56.56h-3.29c-.15,0-.28-.13-.28-.28h0c0-.05.02-.11.05-.15Z"/>
    <path class="cls-1" d="M16.36,20.3c-.31-.29-.47-.69-.47-1.19,0-.44.18-.81.54-1.09.36-.29.89-.43,1.6-.43h.96v-.3c0-.23-.08-.41-.24-.54s-.4-.19-.72-.19c-.24,0-.51.03-.82.1-.1.02-.2.04-.29.07-.32.08-.64-.17-.64-.5h0c0-.24.16-.45.4-.5.54-.13,1.05-.2,1.53-.2.65,0,1.15.15,1.51.46.36.3.54.71.54,1.21v3.02c0,.21-.17.38-.38.38h0c-.07,0-.13-.02-.19-.05l-.52-.3c-.2.16-.43.28-.7.37s-.53.13-.78.13c-.58,0-1.02-.15-1.33-.44ZM18.98,19.34v-.85h-.87c-.32,0-.56.06-.71.18-.15.12-.23.27-.23.45,0,.17.06.3.17.4.11.1.28.15.5.15.34,0,.72-.11,1.14-.33Z"/>
  </g>
</svg>