<?xml version="1.0" encoding="UTF-8"?>
<svg id="Capa_6" data-name="Capa 6" xmlns="http://www.w3.org/2000/svg" viewBox="0 0 48 48">
  <defs>
    <style>
      .cls-1 {
        fill: #00caff;
      }

      .cls-1, .cls-2 {
        stroke-width: 0px;
      }

      .cls-2 {
        fill: #002b4a;
      }
    </style>
  </defs>
  <circle class="cls-1" cx="24" cy="24" r="20.67"/>
  <g>
    <path class="cls-2" d="M15.75,35.65c-.2,0-.39-.09-.52-.25-.23-.29-.18-.71.1-.94l5.45-4.38s.06-.08.1-.11l2.49-2.03s.07-.07.07-.16l-.2-2.68s-.02-.16-.17-.15c-.16,0-.17.11-.17.17l-.07,1.32c-.03.66-.45,1.24-1.06,1.49l-.41.17c-.78.32-1.66.29-2.42-.07-.62-.3-1.39-.68-1.88-.93-.52-.26-.87-.79-.9-1.37l-.11-1.75c0-.07,0-.15.02-.22l.19-.68c.02-.07.05-.14.1-.2l1.94-2.77c.14-.2.38-.31.63-.28l1.35.17c.62.08,1.14.48,1.37,1.06.38.95.82,2.02.82,2.02.02.05.06.15.22.1.15-.05.12-.16.1-.22l-1.08-3.64c-.04-.12-.17-.21-.29-.2l-4.04.04c-.06,0-.19.06-.27.15-.15.36-.73,1.72-1.38,2.53-.18.22-.47.3-.73.21-.26-.09-.45-.33-.45-.61l-.11-3.75s0-.09.01-.14l.31-1.7c.01-.07.04-.13.07-.2l1.41-2.6c.14-.28-.04-.44-.16-.5-.12-.07-.35-.13-.52.16t-.41.53c-.35.44-1.14,1.42-1.56,1.96l-.26.6-.48,2.82c.03.35.32,1.98.59,3.42.07.35-.16.69-.5.77-.35.08-.7-.13-.79-.47l-.79-2.91c-.02-.07-.03-.15-.02-.22l.17-2.43c0-.07.02-.15.05-.22l.49-1.15.06-.33c.03-.12.04-.19.32-.56l.15-.36s.08-.21-.12-.3c-.21-.09-.29.07-.31.12-.02.03-.04.07-.06.1-.67.91-1.4,1.92-1.61,2.23l-.54,3.13c.09.4.59,1.86.83,2.59.1.31.19.57.25.74.1.3-.03.64-.31.79-.28.15-.63.09-.84-.16-.01-.01-.02-.03-1.43-1.89-.09-.11-.13-.25-.13-.39,0-.34-.1-1.16-.15-1.65-.04-.31-.06-.54-.06-.59,0-.06,0-.12.02-.17l.52-2.03s.03-.15-.12-.19c-.15-.04-.18.06-.2.11l-1.02,2.19c0,.33.06,1.24.09,1.81.04.77.06,1.02.05,1.14.01.05.04.1.06.15l.05.14c.72,1.86,1.22,3.84,1.48,5.84l.5,3.87c.05.36-.21.7-.58.75-.38.05-.7-.21-.75-.58l-.5-3.87c-.24-1.9-.72-3.77-1.41-5.55l-.04-.11c-.07-.18-.17-.43-.15-.71,0-.13-.03-.53-.05-1-.11-1.88-.13-2.37.08-2.56l.94-2.02c.25-.72,1.02-1.12,1.81-.89.2.06.38.15.54.28.22-.33.66-.94,1.55-2.15.45-.84,1.35-.99,2.02-.69.22.1.41.24.57.43.16-.2.34-.42.54-.67.18-.23.31-.39.34-.42h0c.58-.9,1.55-.99,2.26-.61.74.39,1.22,1.31.71,2.3l-1.37,2.53-.28,1.52.03,1.23c.06-.14.09-.23.1-.23.02-.05.04-.09.07-.13.34-.49.84-.75,1.41-.77l4-.04c.73-.03,1.4.45,1.61,1.16l1.08,3.66c.12.46.05.91-.18,1.26.38.24.63.65.68,1.14l.2,2.69c.04.49-.17.97-.55,1.29l-2.37,1.94s-.07.08-.11.12l-5.58,4.48c-.12.1-.27.15-.42.15ZM17.39,24.01l.1,1.63c0,.11.07.21.17.26.49.25,1.26.63,1.87.92.42.2.9.22,1.33.04l.41-.17c.13-.05.22-.18.23-.33l.07-1.33c.02-.28.11-.54.25-.75-.24-.16-.45-.4-.57-.7,0,0-.45-1.08-.83-2.04-.05-.13-.17-.21-.3-.23l-.96-.12-1.64,2.35-.13.46Z"/>
    <path class="cls-2" d="M32.11,36.83c-.29,0-.58-.08-.83-.21-.74-.39-1.22-1.31-.71-2.3l1.37-2.53.28-1.52-.03-1.23c-.06.14-.09.23-.1.23-.02.05-.04.09-.07.13-.33.49-.85.77-1.39.77h-.02l-4,.04c-.73.04-1.4-.45-1.61-1.16l-1.08-3.66c-.12-.46-.05-.91.18-1.26-.38-.24-.63-.65-.68-1.14l-.2-2.69c-.04-.49.17-.97.55-1.29l2.37-1.94s.07-.08.11-.12l5.58-4.48c.29-.23.71-.18.94.1.23.29.18.71-.1.94l-5.45,4.38s-.06.08-.1.11l-2.49,2.03s-.07.07-.07.16l.2,2.68s.01.15.17.15h0c.16,0,.17-.11.17-.17l.07-1.32c.03-.66.45-1.24,1.06-1.49l.41-.17c.78-.32,1.66-.29,2.42.07.62.3,1.39.68,1.88.93.52.26.87.79.9,1.37l.11,1.75c0,.07,0,.15-.02.22l-.19.68c-.02.07-.05.14-.1.2l-1.94,2.77c-.14.2-.38.31-.63.28l-1.35-.17c-.62-.08-1.14-.48-1.37-1.06-.38-.95-.82-2.02-.82-2.02-.02-.05-.07-.15-.22-.1-.15.05-.12.16-.1.22l1.08,3.64c.04.12.16.2.29.2l4.04-.04h0c.09,0,.19-.06.27-.15.15-.36.73-1.72,1.38-2.53.17-.22.47-.3.73-.21s.45.33.45.61l.11,3.75s0,.09-.01.14l-.31,1.7c-.01.07-.04.13-.07.2l-1.41,2.6c-.14.28.04.44.16.5.12.07.35.13.52-.16t.41-.53c.35-.44,1.14-1.42,1.56-1.96l.26-.6.48-2.82c-.03-.35-.32-1.98-.59-3.42-.07-.35.16-.69.5-.77.35-.08.7.13.79.47l.79,2.91c.02.07.03.15.02.22l-.17,2.43c0,.07-.02.15-.05.22l-.49,1.15-.06.33c-.03.12-.04.19-.32.56l-.15.36s-.08.21.12.3c.21.09.29-.07.31-.12.02-.03.04-.07.06-.1.67-.91,1.4-1.92,1.61-2.23l.54-3.13c-.09-.4-.59-1.86-.83-2.59-.1-.31-.19-.57-.25-.74-.1-.3.03-.64.31-.79.28-.15.63-.09.84.16.01.01.02.03,1.43,1.89.09.11.13.25.13.39,0,.34.1,1.16.15,1.65.04.31.06.54.06.59,0,.06,0,.12-.02.17l-.52,2.03s-.03.15.12.19c.15.04.18-.06.2-.11l1.02-2.19c0-.33-.06-1.24-.09-1.81-.04-.77-.06-1.02-.05-1.14-.01-.05-.04-.1-.06-.15l-.05-.14c-.72-1.86-1.22-3.84-1.48-5.84l-.5-3.87c-.05-.36.21-.7.58-.75.37-.05.7.21.75.58l.5,3.87c.24,1.9.72,3.77,1.41,5.55l.04.11c.07.18.17.43.15.71,0,.13.03.53.05,1,.11,1.88.13,2.37-.08,2.56l-.94,2.02c-.25.72-1.02,1.12-1.81.89-.2-.06-.38-.15-.54-.28-.22.33-.66.94-1.55,2.15-.45.84-1.35.99-2.02.69-.22-.1-.41-.24-.57-.43-.16.2-.34.42-.54.67-.18.23-.31.39-.34.42h0c-.37.58-.91.82-1.43.82ZM26.18,23.71c.24.16.45.4.57.7,0,0,.45,1.08.83,2.04.05.13.17.21.3.23l.96.12,1.64-2.35.13-.46-.1-1.63c0-.11-.07-.21-.17-.26-.49-.25-1.26-.63-1.87-.92-.42-.2-.9-.22-1.33-.04l-.41.17c-.13.05-.22.18-.23.33l-.07,1.33c-.02.28-.11.54-.25.75Z"/>
  </g>
</svg>