<?xml version="1.0" encoding="UTF-8"?>
<svg id="Capa_6" data-name="Capa 6" xmlns="http://www.w3.org/2000/svg" viewBox="0 0 48 48">
  <defs>
    <style>
      .cls-1 {
        fill: #002b4a;
      }

      .cls-1, .cls-2 {
        stroke-width: 0px;
      }

      .cls-2 {
        fill: #d6acff;
      }
    </style>
  </defs>
  <rect class="cls-2" x="3.33" y="3.33" width="41.33" height="41.33" rx="5.17" ry="5.17"/>
  <g>
    <path class="cls-1" d="M23.41,37.85c-.29,0-.55-.19-.64-.48l-.82-2.78c-.1-.35-.42-.6-.79-.61l-2.84-.09c-1.09-.03-1.99-.87-2.11-1.96l-.4-3.75c-.03-.31-.22-.57-.5-.69l-.48-.09c-.72-.13-1.32-.62-1.6-1.3s-.19-1.45.24-2.05l1.42-1.98c.02-.34.03-1.24.03-1.7,0-.25,0-.46,0-.59-.46-2.38.14-4.82,1.65-6.72,1.52-1.92,3.79-3.07,6.24-3.15l3.62-.12c3.32-.12,6.46,1.88,7.74,4.98,1.56,3.75,1.42,7.99-.37,11.64l-.62,1.26c-.08.17-.11.36-.07.54l.59,3.07c.07.36-.17.71-.53.78-.36.07-.71-.17-.78-.53l-.59-3.07c-.09-.46-.02-.96.18-1.38l.62-1.26c1.62-3.3,1.75-7.14.34-10.54-1.07-2.58-3.65-4.26-6.46-4.15l-3.62.12c-2.05.07-3.96,1.03-5.24,2.64-1.27,1.61-1.77,3.69-1.37,5.71.01.06.02.13.01.19,0,.06,0,.29,0,.59,0,1.9-.03,2.04-.12,2.23-.02.04-.04.07-.06.11l-1.51,2.12c-.16.23-.2.51-.09.77s.32.44.6.49l.55.1s.08.02.11.03c.78.29,1.32.99,1.41,1.82l.4,3.75c.04.42.4.75.82.76l2.85.09c.94.03,1.76.66,2.03,1.56l.82,2.78c.1.35-.1.72-.45.83-.06.02-.13.03-.19.03Z"/>
    <g>
      <path class="cls-1" d="M25.04,26.13c-.2,0-.39-.09-.52-.25l-1.06-1.32-1.58.61c-.22.09-.48.05-.66-.11l-.81-.66s-.06-.06-.09-.09l-.66-.81c-.15-.19-.19-.44-.11-.66l.61-1.58-1.32-1.06c-.21-.17-.29-.44-.23-.69l.54-2.02c.07-.26.28-.45.54-.49l1.67-.26.26-1.67c.04-.26.23-.47.49-.54l2.02-.54c.25-.07.53.02.69.23l1.06,1.32,1.58-.61c.22-.09.48-.05.66.11l.81.66s.06.06.09.09l.66.81c.15.19.19.44.11.66l-.61,1.58,1.32,1.06c.21.17.29.44.23.69l-.54,2.02c-.07.26-.28.45-.54.49l-1.67.26-.26,1.67c-.04.26-.23.47-.49.54l-2.02.54c-.06.01-.11.02-.17.02ZM23.68,23.1c.2,0,.39.09.52.25l1.09,1.36,1.18-.31.27-1.73c.04-.29.27-.51.56-.56l1.73-.27.31-1.18-1.36-1.09c-.23-.18-.31-.49-.2-.76l.65-1.67-.38-.46-.46-.38-1.67.65c-.27.11-.58.02-.76-.2l-1.09-1.36-1.18.31-.27,1.73c-.04.29-.27.51-.56.56l-1.73.27-.32,1.18,1.36,1.09c.23.18.31.49.2.76l-.65,1.67.38.46.46.38,1.67-.65c.08-.03.16-.05.24-.05Z"/>
      <path class="cls-1" d="M24.67,22.52c-.63,0-1.27-.24-1.75-.72-.97-.97-.97-2.54,0-3.5.97-.97,2.54-.97,3.5,0,.97.97.97,2.54,0,3.5h0c-.48.48-1.12.72-1.75.72ZM25.95,21.33h0,0ZM24.67,18.9c-.29,0-.59.11-.81.33-.45.45-.45,1.17,0,1.62.45.45,1.17.45,1.62,0,.45-.45.45-1.17,0-1.62-.22-.22-.52-.33-.81-.33Z"/>
    </g>
  </g>
</svg>