<?xml version="1.0" encoding="UTF-8"?>
<svg id="Capa_6" data-name="Capa 6" xmlns="http://www.w3.org/2000/svg" viewBox="0 0 48 48">
  <defs>
    <style>
      .cls-1 {
        fill: #002b4a;
      }

      .cls-1, .cls-2 {
        stroke-width: 0px;
      }

      .cls-2 {
        fill: #d6acff;
      }
    </style>
  </defs>
  <rect class="cls-2" x="3.33" y="3.33" width="41.33" height="41.33" rx="5.17" ry="5.17"/>
  <g>
    <path class="cls-1" d="M22.35,18.26h0c.28,0,.49.27.43.54l-.93,3.79c-.08.3-.11.48-.11.55,0,.07.02.13.07.17s.1.07.18.07c.11,0,.24-.05.39-.14.23-.15.54-.09.71.12h0c.19.24.15.59-.09.78-.53.42-1.09.63-1.67.63-.32,0-.6-.06-.82-.17s-.4-.28-.54-.5-.2-.43-.2-.64c0-.07.01-.2.04-.38.04-.27.08-.49.12-.65l.59-2.41h-.47c-.41,0-.71-.38-.61-.78h0c.06-.25.27-.44.53-.47.82-.11,1.58-.27,2.26-.48.04-.01.08-.02.13-.02Z"/>
    <path class="cls-1" d="M22.13,14.68c.43,0,.77.14,1.01.41s.36.61.36.99c0,.29-.07.56-.22.82s-.36.47-.63.63-.54.24-.8.24c-.24,0-.48-.06-.72-.19s-.42-.3-.55-.52-.19-.45-.19-.71c0-.28.08-.56.24-.83s.37-.48.63-.63.55-.22.87-.22Z"/>
  </g>
  <path class="cls-1" d="M24.58,29.06c-1.2,0-2.36-.45-3.27-1.24-.78.48-1.67.74-2.59.74-2.79,0-5.06-2.33-5.06-5.2,0-.03,0-.06,0-.09-1.52-.94-2.44-2.61-2.44-4.45,0-3.05,2.58-5.5,5.58-5.18.81-1.85,2.6-3.05,4.61-3.05,1.81,0,3.47,1,4.37,2.58,3.1-.5,5.82,2.02,5.82,5.14,0,1.68-.8,3.26-2.12,4.23.11.43.17.87.17,1.31,0,2.87-2.27,5.2-5.06,5.2ZM21.38,26.29c.18,0,.36.07.49.22.71.78,1.67,1.22,2.71,1.22,2.06,0,3.73-1.74,3.73-3.87,0-.46-.08-.92-.24-1.37-.11-.3.01-.64.29-.8,1.18-.69,1.91-1.98,1.91-3.38,0-2.45-2.22-4.41-4.67-3.74-.32.09-.65-.07-.79-.38-.6-1.38-1.93-2.28-3.39-2.28-1.62,0-3.04,1.07-3.54,2.67-.1.33-.45.53-.78.45-2.38-.54-4.53,1.37-4.53,3.78,0,1.49.8,2.82,2.1,3.48.24.12.39.39.36.66-.01.13-.02.27-.02.4,0,2.13,1.67,3.87,3.73,3.87.81,0,1.59-.27,2.25-.79.12-.1.27-.14.41-.14Z"/>
  <path class="cls-1" d="M34.74,37.06c-1.21,0-2.19-.98-2.19-2.19s.98-2.19,2.19-2.19,2.19.98,2.19,2.19-.98,2.19-2.19,2.19ZM34.74,34.01c-.47,0-.86.38-.86.86s.38.86.86.86.86-.38.86-.86-.38-.86-.86-.86Z"/>
  <path class="cls-1" d="M30.36,33.25c-1.42,0-2.57-1.15-2.57-2.57s1.15-2.57,2.57-2.57,2.57,1.15,2.57,2.57-1.15,2.57-2.57,2.57ZM30.36,29.44c-.68,0-1.24.56-1.24,1.24s.56,1.24,1.24,1.24,1.24-.56,1.24-1.24-.56-1.24-1.24-1.24Z"/>
</svg>