<?xml version="1.0" encoding="UTF-8"?>
<svg id="Capa_6" data-name="Capa 6" xmlns="http://www.w3.org/2000/svg" viewBox="0 0 48 48">
  <defs>
    <style>
      .cls-1 {
        fill: #00caff;
      }

      .cls-1, .cls-2 {
        stroke-width: 0px;
      }

      .cls-2 {
        fill: #002b4a;
      }
    </style>
  </defs>
  <circle class="cls-1" cx="24" cy="24" r="20.67"/>
  <g>
    <path class="cls-2" d="M24,29.38c-4.91,0-8.91-4-8.91-8.91v-2.35c0-.37.3-.67.67-.67s.67.3.67.67v2.35c0,4.18,3.4,7.58,7.58,7.58s7.58-3.4,7.58-7.58v-2.35c0-.37.3-.67.67-.67s.67.3.67.67v2.35c0,4.91-4,8.91-8.91,8.91ZM24,24.67c-2.32,0-4.2-1.88-4.2-4.2v-5.89c0-2.32,1.88-4.2,4.2-4.2s4.2,1.88,4.2,4.2v5.89c0,2.32-1.88,4.2-4.2,4.2ZM24,11.71c-1.58,0-2.87,1.29-2.87,2.87v5.89c0,1.58,1.29,2.87,2.87,2.87s2.87-1.29,2.87-2.87v-5.89c0-1.58-1.29-2.87-2.87-2.87Z"/>
    <path class="cls-2" d="M24,37.62c-.37,0-.67-.3-.67-.67v-8.24c0-.37.3-.67.67-.67s.67.3.67.67v8.24c0,.37-.3.67-.67.67Z"/>
  </g>
</svg>