<?xml version="1.0" encoding="UTF-8"?>
<svg id="Capa_6" data-name="Capa 6" xmlns="http://www.w3.org/2000/svg" viewBox="0 0 48 48">
  <defs>
    <style>
      .cls-1 {
        fill: #00caff;
      }

      .cls-1, .cls-2 {
        stroke-width: 0px;
      }

      .cls-2 {
        fill: #002b4a;
      }
    </style>
  </defs>
  <circle class="cls-1" cx="24" cy="24" r="20.67"/>
  <g>
    <g>
      <path class="cls-2" d="M17.48,35.93c-.25,0-.5-.07-.74-.2-.46-.27-.73-.74-.73-1.27v-4.54s9.38-16.24,9.38-16.24c.47-.82,1.24-1.4,2.15-1.65.91-.25,1.87-.12,2.69.35,1.69.98,2.27,3.15,1.3,4.84l-9.38,16.24-3.93,2.27c-.23.13-.48.2-.73.2ZM17.34,30.28v4.18c0,.05.02.09.07.12.04.03.09.03.14,0l3.62-2.09,9.2-15.93c.61-1.05.25-2.41-.81-3.01-.51-.29-1.1-.37-1.67-.22-.57.15-1.04.52-1.34,1.03l-9.2,15.93ZM21.65,32.97h0,0Z"/>
      <path class="cls-2" d="M31.04,17.38c-.11,0-.23-.03-.33-.09l-4.98-2.87c-.32-.18-.43-.59-.24-.91s.59-.43.91-.24l4.98,2.87c.32.18.43.59.24.91-.12.21-.35.33-.58.33Z"/>
      <path class="cls-2" d="M30.08,19.04c-.11,0-.23-.03-.33-.09l-4.98-2.87c-.32-.18-.43-.59-.24-.91.18-.32.59-.43.91-.24l4.98,2.87c.32.18.43.59.24.91-.12.21-.35.33-.58.33Z"/>
      <path class="cls-2" d="M19,32.11c-.11,0-.23-.03-.33-.09-.32-.18-.43-.59-.24-.91l8.43-14.6c.18-.32.59-.43.91-.24.32.18.43.59.24.91l-8.43,14.6c-.12.21-.35.33-.58.33Z"/>
      <path class="cls-2" d="M21.65,33.64c-.11,0-.23-.03-.33-.09l-4.98-2.87c-.32-.18-.43-.59-.24-.91.18-.32.59-.43.91-.24l4.98,2.87c.32.18.43.59.24.91-.12.21-.35.33-.58.33Z"/>
    </g>
    <path class="cls-2" d="M34.15,36.1H13.85c-.37,0-.67-.3-.67-.67s.3-.67.67-.67h20.3c.37,0,.67.3.67.67s-.3.67-.67.67Z"/>
  </g>
</svg>