<?xml version="1.0" encoding="UTF-8"?>
<svg id="Capa_6" data-name="Capa 6" xmlns="http://www.w3.org/2000/svg" viewBox="0 0 48 48">
  <defs>
    <style>
      .cls-1 {
        fill: #00ed7b;
      }

      .cls-1, .cls-2 {
        stroke-width: 0px;
      }

      .cls-2 {
        fill: #002b4a;
      }
    </style>
  </defs>
  <rect class="cls-1" x="6.2" y="5.53" width="35.61" height="35.61" rx="4.45" ry="4.45" transform="translate(-9.47 23.8) rotate(-45)"/>
  <g>
    <g>
      <path class="cls-2" d="M21.22,32.95c-.37,0-.67-.3-.67-.67,0-2.94-2.39-5.33-5.33-5.33-.37,0-.67-.3-.67-.67s.3-.67.67-.67c3.68,0,6.67,2.99,6.67,6.67,0,.37-.3.67-.67.67Z"/>
      <path class="cls-2" d="M27.22,32.95c-.37,0-.67-.3-.67-.67,0-6.25-5.08-11.33-11.33-11.33-.37,0-.67-.3-.67-.67s.3-.67.67-.67c6.98,0,12.67,5.68,12.67,12.67,0,.37-.3.67-.67.67Z"/>
      <path class="cls-2" d="M27.22,32.95c-.37,0-.67-.3-.67-.67,0-6.25-5.08-11.33-11.33-11.33-.37,0-.67-.3-.67-.67s.3-.67.67-.67c6.98,0,12.67,5.68,12.67,12.67,0,.37-.3.67-.67.67Z"/>
      <path class="cls-2" d="M33.22,32.95c-.37,0-.67-.3-.67-.67,0-9.56-7.78-17.33-17.33-17.33-.37,0-.67-.3-.67-.67s.3-.67.67-.67c10.29,0,18.67,8.37,18.67,18.67,0,.37-.3.67-.67.67Z"/>
    </g>
    <path class="cls-2" d="M16.45,32.46c-1.04,0-1.89-.85-1.89-1.89s.85-1.89,1.89-1.89,1.89.85,1.89,1.89-.85,1.89-1.89,1.89ZM16.45,30.01c-.31,0-.56.25-.56.56s.25.56.56.56.56-.25.56-.56-.25-.56-.56-.56Z"/>
  </g>
</svg>