<?xml version="1.0" encoding="UTF-8"?>
<svg id="Capa_6" data-name="Capa 6" xmlns="http://www.w3.org/2000/svg" viewBox="0 0 48 48">
  <defs>
    <style>
      .cls-1 {
        fill: #00caff;
      }

      .cls-1, .cls-2 {
        stroke-width: 0px;
      }

      .cls-2 {
        fill: #002b4a;
      }
    </style>
  </defs>
  <circle class="cls-1" cx="24" cy="24" r="20.67"/>
  <g>
    <path class="cls-2" d="M24,36.86c-7.09,0-12.86-5.77-12.86-12.86s5.77-12.86,12.86-12.86,12.86,5.77,12.86,12.86-5.77,12.86-12.86,12.86ZM24,12.48c-6.35,0-11.52,5.17-11.52,11.52s5.17,11.52,11.52,11.52,11.52-5.17,11.52-11.52-5.17-11.52-11.52-11.52Z"/>
    <g>
      <path class="cls-2" d="M24.25,20.03c-2.42,0-4.75-.25-6.75-.73-.36-.09-.58-.45-.49-.8s.45-.58.8-.49c1.9.45,4.13.69,6.44.69.37,0,.67.3.67.67s-.3.67-.67.67Z"/>
      <path class="cls-2" d="M17.65,19.31c-.05,0-.1,0-.16-.02-1.38-.33-2.53-.75-3.44-1.25-.32-.18-.44-.58-.26-.91.18-.32.58-.44.91-.26.79.44,1.87.82,3.11,1.12.36.09.58.45.49.8-.07.31-.35.51-.65.51Z"/>
      <path class="cls-2" d="M24.25,20.03c-.37,0-.67-.3-.67-.67s.3-.67.67-.67c2.32,0,4.54-.24,6.44-.69.36-.08.72.14.8.49.09.36-.14.72-.49.8-2,.48-4.33.73-6.75.73Z"/>
      <path class="cls-2" d="M30.85,19.31c-.3,0-.57-.21-.65-.51-.09-.36.14-.72.49-.8,1.24-.3,2.31-.68,3.11-1.12.32-.18.73-.06.91.26.18.32.06.73-.26.91-.91.5-2.07.92-3.44,1.25-.05.01-.1.02-.16.02Z"/>
      <path class="cls-2" d="M23.01,36.75c-.06,0-.13,0-.19-.03-2.51-.74-4.67-3.34-5.79-6.93-.11-.35.09-.73.44-.84.35-.11.73.09.83.44.99,3.17,2.82,5.43,4.9,6.05.35.1.55.48.45.83-.09.29-.35.48-.64.48Z"/>
      <path class="cls-2" d="M17.65,19.31c-.07,0-.13,0-.2-.03-.35-.11-.55-.48-.44-.83,1.35-4.36,4.11-7.12,7.22-7.2.34-.01.67.28.68.65,0,.37-.28.67-.65.68-2.51.07-4.81,2.47-5.98,6.26-.09.29-.35.47-.64.47Z"/>
      <path class="cls-2" d="M17.66,30.26c-.28,0-.55-.18-.64-.47-.56-1.78-.84-3.7-.84-5.7v-.08c0-.37.3-.69.67-.69s.67.27.67.64v.08c0,1.92.26,3.7.78,5.35.11.35-.09.73-.44.84-.07.02-.13.03-.2.03Z"/>
      <path class="cls-2" d="M16.86,24.63h0c-.37,0-.66-.3-.66-.67.01-1.93.29-3.79.82-5.51.11-.35.48-.55.83-.44.35.11.55.48.44.83-.49,1.6-.75,3.32-.76,5.12,0,.37-.3.66-.67.66Z"/>
      <path class="cls-2" d="M30.85,19.31c-.29,0-.55-.18-.64-.47-1.17-3.79-3.46-6.19-5.98-6.26-.37-.01-.66-.32-.65-.68.01-.36.31-.65.67-.65,0,0,.01,0,.02,0,3.1.09,5.87,2.85,7.22,7.2.11.35-.09.73-.44.83-.07.02-.13.03-.2.03Z"/>
      <path class="cls-2" d="M25.48,36.75c-.29,0-.55-.19-.64-.48-.1-.35.1-.72.45-.83,2.08-.62,3.91-2.88,4.9-6.05.11-.35.49-.55.83-.44.35.11.55.48.44.84-1.12,3.59-3.29,6.19-5.79,6.93-.06.02-.13.03-.19.03Z"/>
      <path class="cls-2" d="M31.64,24.63c-.37,0-.66-.3-.67-.66-.01-1.8-.27-3.53-.76-5.12-.11-.35.09-.73.44-.83.35-.11.72.09.83.44.53,1.72.81,3.58.82,5.51,0,.37-.29.67-.66.67h0Z"/>
      <path class="cls-2" d="M30.83,30.26c-.07,0-.13-.01-.2-.03-.35-.11-.55-.48-.44-.84.52-1.65.78-3.43.78-5.3v-.08s.66-.06.66-.06h.67s-.67,0-.67,0l.67.03v.1c0,2-.28,3.91-.84,5.7-.09.29-.35.47-.64.47Z"/>
      <path class="cls-2" d="M30.83,30.26c-.05,0-.11,0-.16-.02-1.89-.48-4.11-.74-6.42-.74-.37,0-.67-.3-.67-.67s.3-.67.67-.67c2.42,0,4.75.27,6.75.78.36.09.57.45.48.81-.08.3-.35.5-.65.5Z"/>
      <path class="cls-2" d="M17.66,30.26c-.3,0-.57-.2-.65-.5-.09-.36.12-.72.48-.81,2-.51,4.33-.78,6.75-.78.37,0,.67.3.67.67s-.3.67-.67.67c-2.31,0-4.53.25-6.42.74-.05.01-.11.02-.16.02Z"/>
      <path class="cls-2" d="M14.56,31.43c-.24,0-.46-.12-.58-.34-.18-.32-.06-.73.26-.91.88-.49,1.98-.9,3.27-1.23.35-.09.72.12.81.48.09.36-.12.72-.48.81-1.18.3-2.17.67-2.95,1.1-.1.06-.21.08-.32.08Z"/>
      <path class="cls-2" d="M33.94,31.43c-.11,0-.22-.03-.32-.08-.78-.43-1.77-.8-2.95-1.1-.36-.09-.57-.45-.48-.81.09-.36.45-.57.81-.48,1.29.33,2.39.74,3.27,1.23.32.18.44.58.26.91-.12.22-.35.34-.58.34Z"/>
      <path class="cls-2" d="M35.9,24.63H12.06c-.37,0-.67-.3-.67-.67s.3-.67.67-.67h23.84c.37,0,.67.3.67.67s-.3.67-.67.67Z"/>
      <path class="cls-2" d="M24.25,36.55c-.37,0-.67-.3-.67-.67V12.04c0-.37.3-.67.67-.67s.67.3.67.67v23.84c0,.37-.3.67-.67.67Z"/>
    </g>
  </g>
</svg>