<?xml version="1.0" encoding="UTF-8"?>
<svg id="Capa_6" data-name="Capa 6" xmlns="http://www.w3.org/2000/svg" viewBox="0 0 48 48">
  <defs>
    <style>
      .cls-1 {
        fill: #00ed7b;
      }

      .cls-1, .cls-2 {
        stroke-width: 0px;
      }

      .cls-2 {
        fill: #002b4a;
      }
    </style>
  </defs>
  <rect class="cls-1" x="6.2" y="5.53" width="35.61" height="35.61" rx="4.45" ry="4.45" transform="translate(-9.47 23.8) rotate(-45)"/>
  <g>
    <path class="cls-2" d="M24.15,30.4c-7.16,0-12.84-6.43-13.07-6.71-.22-.25-.22-.62,0-.87.24-.27,5.91-6.71,13.07-6.71s12.84,6.43,13.07,6.71c.22.25.22.62,0,.87-.24.27-5.91,6.71-13.07,6.71ZM12.5,23.25c1.39,1.42,6.14,5.81,11.66,5.81s10.27-4.39,11.66-5.81c-1.39-1.42-6.14-5.81-11.66-5.81s-10.26,4.39-11.66,5.81Z"/>
    <path class="cls-2" d="M24.15,29.25c-3.31,0-6-2.69-6-6s2.69-6,6-6,6,2.69,6,6-2.69,6-6,6ZM24.15,18.59c-2.57,0-4.67,2.09-4.67,4.67s2.09,4.67,4.67,4.67,4.67-2.09,4.67-4.67-2.09-4.67-4.67-4.67Z"/>
  </g>
</svg>